  0
SECTION
  2
HEADER
  9
$ANGBASE
  50
0.0
  9
$ANGDIR
  70
1
  9
$MEASUREMENT
  70
0
  0
ENDSEC
  0
SECTION
  2
TABLES
  0
TABLE
  2
LTYPE
  70
4
  0
LTYPE
  5
40F
  2
CONTINUOUS
  70
0
  3
Solid line
  72
65
  73
0
  40
0.0
  0
LTYPE
  5
410
  2
DASHDOT
 70
0
  3
Dash Dot ____ _ ____ _
 72
65
 73
4
 40
2.0
 49
1.25
 49
-0.25
 49
0.25
 49
-0.25
  0
LTYPE
  5
411
  2
DASHED
 70
0
  3
Dashed __ __ __ __ __
 72
65
 73
2
 40
0.75
 49
0.5
 49
-0.25
  0
LTYPE
  5
43B
  2
DOTTED
 70
0
  3
Dotted .  .  .  .
 72
65
 73
2
 40
0.2
 49
0.0
 49
-0.2
  0
ENDTAB
  0
TABLE
  2
STYLE
  70
4
  0
STYLE
  2
KICAD
  70
0
  40
0
  41
1
  42
1
  50
0
  71
0
  3
isocp.shx
  0
STYLE
  2
KICADB
  70
0
  40
0
  41
1
  42
1
  50
0
  71
0
  3
isocp.shx
  0
STYLE
  2
KICADI
  70
0
  40
0
  41
1
  42
1
  50
15
  71
0
  3
isocp.shx
  0
STYLE
  2
KICADBI
  70
0
  40
0
  41
1
  42
1
  50
15
  71
0
  3
isocp.shx
  0
ENDTAB
  0
TABLE
  2
LAYER
  70
1
  0
LAYER
  2
BLACK
  70
0
  62
7
  6
CONTINUOUS
  0
ENDTAB
  0
ENDSEC
  0
SECTION
  2
ENTITIES
0
CIRCLE
8
BLACK
10
11.31
20
-16.34
40
0.0590551
0
LINE
8
BLACK
6
CONTINUOUS
10
13.9
20
-17.1641
11
13.43
21
-17.8341
0
LINE
8
BLACK
6
CONTINUOUS
10
13.43
20
-17.8341
11
12.18
21
-17.5041
0
LINE
8
BLACK
6
CONTINUOUS
10
12.18
20
-17.5041
11
12.03
21
-16.8041
0
LINE
8
BLACK
6
CONTINUOUS
10
12.03
20
-16.8041
11
9.49
21
-16.8041
0
LINE
8
BLACK
6
CONTINUOUS
10
9.49
20
-16.8041
11
9.29
21
-17.5241
0
LINE
8
BLACK
6
CONTINUOUS
10
9.29
20
-17.5241
11
8.56
21
-17.5241
0
LINE
8
BLACK
6
CONTINUOUS
10
8.56
20
-17.5241
11
8.56
21
-14
0
LINE
8
BLACK
6
CONTINUOUS
10
8.56
20
-14
11
13.8991
21
-14
0
LINE
8
BLACK
6
CONTINUOUS
10
13.8991
20
-14
11
13.9
21
-14
0
LINE
8
BLACK
6
CONTINUOUS
10
13.9
20
-14
11
13.9
21
-17.1641
0
CIRCLE
8
BLACK
10
13.7491
20
-14.15
40
0.0590551
0
LINE
8
BLACK
6
CONTINUOUS
10
19.3391
20
-17.5241
11
18.6091
21
-17.5241
0
LINE
8
BLACK
6
CONTINUOUS
10
18.6091
20
-17.5241
11
18.4091
21
-16.8041
0
LINE
8
BLACK
6
CONTINUOUS
10
18.4091
20
-16.8041
11
15.8691
21
-16.8041
0
LINE
8
BLACK
6
CONTINUOUS
10
15.8691
20
-16.8041
11
15.7191
21
-17.5041
0
LINE
8
BLACK
6
CONTINUOUS
10
15.7191
20
-17.5041
11
14.4691
21
-17.8341
0
LINE
8
BLACK
6
CONTINUOUS
10
14.4691
20
-17.8341
11
13.9991
21
-17.1641
0
LINE
8
BLACK
6
CONTINUOUS
10
13.9991
20
-17.1641
11
13.9991
21
-14
0
LINE
8
BLACK
6
CONTINUOUS
10
13.9991
20
-14
11
14
21
-14
0
LINE
8
BLACK
6
CONTINUOUS
10
14
20
-14
11
19.3391
21
-14
0
LINE
8
BLACK
6
CONTINUOUS
10
19.3391
20
-14
11
19.3391
21
-17.5241
0
CIRCLE
8
BLACK
10
13.7391
20
-17.13
40
0.0590551
0
CIRCLE
8
BLACK
10
19.22
20
-14.12
40
0.0590551
0
CIRCLE
8
BLACK
10
11.31
20
-14.525
40
0.0590551
0
CIRCLE
8
BLACK
10
14.16
20
-17.13
40
0.0590551
0
CIRCLE
8
BLACK
10
8.67912
20
-14.12
40
0.0590551
0
CIRCLE
8
BLACK
10
13.7391
20
-17.13
40
0.0590551
0
CIRCLE
8
BLACK
10
9.37818
20
-16.78
40
0.0590551
0
CIRCLE
8
BLACK
10
11.31
20
-14.525
40
0.0590551
0
CIRCLE
8
BLACK
10
16.5891
20
-14.525
40
0.0590551
0
CIRCLE
8
BLACK
10
11.31
20
-16.34
40
0.0590551
0
CIRCLE
8
BLACK
10
18.5209
20
-16.78
40
0.0590551
0
CIRCLE
8
BLACK
10
13.7491
20
-14.15
40
0.0590551
0
CIRCLE
8
BLACK
10
16.5891
20
-16.34
40
0.0590551
0
CIRCLE
8
BLACK
10
12.1791
20
-16.97
40
0.0590551
0
CIRCLE
8
BLACK
10
14.15
20
-14.15
40
0.0590551
0
CIRCLE
8
BLACK
10
8.67912
20
-14.12
40
0.0590551
0
CIRCLE
8
BLACK
10
12.1791
20
-16.97
40
0.0590551
0
CIRCLE
8
BLACK
10
9.37818
20
-16.78
40
0.0590551
0
CIRCLE
8
BLACK
10
15.72
20
-16.97
40
0.0590551
  0
ENDSEC
  0
EOF
