  0
SECTION
  2
HEADER
  9
$ANGBASE
  50
0.0
  9
$ANGDIR
  70
1
  9
$MEASUREMENT
  70
0
  0
ENDSEC
  0
SECTION
  2
TABLES
  0
TABLE
  2
LTYPE
  70
4
  0
LTYPE
  5
40F
  2
CONTINUOUS
  70
0
  3
Solid line
  72
65
  73
0
  40
0.0
  0
LTYPE
  5
410
  2
DASHDOT
 70
0
  3
Dash Dot ____ _ ____ _
 72
65
 73
4
 40
2.0
 49
1.25
 49
-0.25
 49
0.25
 49
-0.25
  0
LTYPE
  5
411
  2
DASHED
 70
0
  3
Dashed __ __ __ __ __
 72
65
 73
2
 40
0.75
 49
0.5
 49
-0.25
  0
LTYPE
  5
43B
  2
DOTTED
 70
0
  3
Dotted .  .  .  .
 72
65
 73
2
 40
0.2
 49
0.0
 49
-0.2
  0
ENDTAB
  0
TABLE
  2
STYLE
  70
4
  0
STYLE
  2
KICAD
  70
0
  40
0
  41
1
  42
1
  50
0
  71
0
  3
isocp.shx
  0
STYLE
  2
KICADB
  70
0
  40
0
  41
1
  42
1
  50
0
  71
0
  3
isocp.shx
  0
STYLE
  2
KICADI
  70
0
  40
0
  41
1
  42
1
  50
15
  71
0
  3
isocp.shx
  0
STYLE
  2
KICADBI
  70
0
  40
0
  41
1
  42
1
  50
15
  71
0
  3
isocp.shx
  0
ENDTAB
  0
TABLE
  2
LAYER
  70
1
  0
LAYER
  2
BLACK
  70
0
  62
7
  6
CONTINUOUS
  0
ENDTAB
  0
ENDSEC
  0
SECTION
  2
ENTITIES
0
LINE
8
BLACK
6
CONTINUOUS
10
19.3391
20
-17.5241
11
18.6091
21
-17.5241
0
LINE
8
BLACK
6
CONTINUOUS
10
18.6091
20
-17.5241
11
18.4091
21
-16.8041
0
LINE
8
BLACK
6
CONTINUOUS
10
18.4091
20
-16.8041
11
15.8691
21
-16.8041
0
LINE
8
BLACK
6
CONTINUOUS
10
15.8691
20
-16.8041
11
15.7191
21
-17.5041
0
LINE
8
BLACK
6
CONTINUOUS
10
15.7191
20
-17.5041
11
14.4691
21
-17.8341
0
LINE
8
BLACK
6
CONTINUOUS
10
14.4691
20
-17.8341
11
13.9991
21
-17.1641
0
LINE
8
BLACK
6
CONTINUOUS
10
13.9991
20
-17.1641
11
13.9991
21
-14
0
LINE
8
BLACK
6
CONTINUOUS
10
13.9991
20
-14
11
14
21
-14
0
LINE
8
BLACK
6
CONTINUOUS
10
14
20
-14
11
19.3391
21
-14
0
LINE
8
BLACK
6
CONTINUOUS
10
19.3391
20
-14
11
19.3391
21
-17.5241
0
CIRCLE
8
BLACK
10
18.5209
20
-16.78
40
0.0590551
0
LINE
8
BLACK
6
CONTINUOUS
10
9.32089
20
-14.2894
11
9.87207
21
-14.2894
0
LINE
8
BLACK
6
CONTINUOUS
10
9.87207
20
-14.2894
11
9.87207
21
-14.8406
0
LINE
8
BLACK
6
CONTINUOUS
10
9.87207
20
-14.8406
11
9.32089
21
-14.8406
0
LINE
8
BLACK
6
CONTINUOUS
10
9.32089
20
-14.8406
11
9.32089
21
-14.2894
0
CIRCLE
8
BLACK
10
9.3773
20
-16.78
40
0.0590551
0
CIRCLE
8
BLACK
10
14.16
20
-17.13
40
0.0590551
0
LINE
8
BLACK
6
CONTINUOUS
10
17.3344
20
-14.7321
11
17.8856
21
-14.7321
0
LINE
8
BLACK
6
CONTINUOUS
10
17.8856
20
-14.7321
11
17.8856
21
-15.2833
0
LINE
8
BLACK
6
CONTINUOUS
10
17.8856
20
-15.2833
11
17.3344
21
-15.2833
0
LINE
8
BLACK
6
CONTINUOUS
10
17.3344
20
-15.2833
11
17.3344
21
-14.7321
0
CIRCLE
8
BLACK
10
15.72
20
-16.97
40
0.0590551
0
CIRCLE
8
BLACK
10
13.7382
20
-17.13
40
0.0590551
0
LINE
8
BLACK
6
CONTINUOUS
10
12.0409
20
-16.2494
11
12.5921
21
-16.2494
0
LINE
8
BLACK
6
CONTINUOUS
10
12.5921
20
-16.2494
11
12.5921
21
-16.8006
0
LINE
8
BLACK
6
CONTINUOUS
10
12.5921
20
-16.8006
11
12.0409
21
-16.8006
0
LINE
8
BLACK
6
CONTINUOUS
10
12.0409
20
-16.8006
11
12.0409
21
-16.2494
0
LINE
8
BLACK
6
CONTINUOUS
10
18.0144
20
-14.8921
11
18.5656
21
-14.8921
0
LINE
8
BLACK
6
CONTINUOUS
10
18.5656
20
-14.8921
11
18.5656
21
-15.4433
0
LINE
8
BLACK
6
CONTINUOUS
10
18.5656
20
-15.4433
11
18.0144
21
-15.4433
0
LINE
8
BLACK
6
CONTINUOUS
10
18.0144
20
-15.4433
11
18.0144
21
-14.8921
0
CIRCLE
8
BLACK
10
16.5891
20
-16.34
40
0.0590551
0
LINE
8
BLACK
6
CONTINUOUS
10
10.6809
20
-14.2894
11
11.2321
21
-14.2894
0
LINE
8
BLACK
6
CONTINUOUS
10
11.2321
20
-14.2894
11
11.2321
21
-14.8406
0
LINE
8
BLACK
6
CONTINUOUS
10
11.2321
20
-14.8406
11
10.6809
21
-14.8406
0
LINE
8
BLACK
6
CONTINUOUS
10
10.6809
20
-14.8406
11
10.6809
21
-14.2894
0
LINE
8
BLACK
6
CONTINUOUS
10
18.0144
20
-16.0921
11
18.5656
21
-16.0921
0
LINE
8
BLACK
6
CONTINUOUS
10
18.5656
20
-16.0921
11
18.5656
21
-16.6433
0
LINE
8
BLACK
6
CONTINUOUS
10
18.5656
20
-16.6433
11
18.0144
21
-16.6433
0
LINE
8
BLACK
6
CONTINUOUS
10
18.0144
20
-16.6433
11
18.0144
21
-16.0921
0
LINE
8
BLACK
6
CONTINUOUS
10
10.6809
20
-15.4894
11
11.2321
21
-15.4894
0
LINE
8
BLACK
6
CONTINUOUS
10
11.2321
20
-15.4894
11
11.2321
21
-16.0406
0
LINE
8
BLACK
6
CONTINUOUS
10
11.2321
20
-16.0406
11
10.6809
21
-16.0406
0
LINE
8
BLACK
6
CONTINUOUS
10
10.6809
20
-16.0406
11
10.6809
21
-15.4894
0
LINE
8
BLACK
6
CONTINUOUS
10
18.0144
20
-15.4921
11
18.5656
21
-15.4921
0
LINE
8
BLACK
6
CONTINUOUS
10
18.5656
20
-15.4921
11
18.5656
21
-16.0433
0
LINE
8
BLACK
6
CONTINUOUS
10
18.5656
20
-16.0433
11
18.0144
21
-16.0433
0
LINE
8
BLACK
6
CONTINUOUS
10
18.0144
20
-16.0433
11
18.0144
21
-15.4921
0
LINE
8
BLACK
6
CONTINUOUS
10
12.0409
20
-14.4494
11
12.5921
21
-14.4494
0
LINE
8
BLACK
6
CONTINUOUS
10
12.5921
20
-14.4494
11
12.5921
21
-15.0006
0
LINE
8
BLACK
6
CONTINUOUS
10
12.5921
20
-15.0006
11
12.0409
21
-15.0006
0
LINE
8
BLACK
6
CONTINUOUS
10
12.0409
20
-15.0006
11
12.0409
21
-14.4494
0
LINE
8
BLACK
6
CONTINUOUS
10
11.3609
20
-14.9694
11
11.9121
21
-14.9694
0
LINE
8
BLACK
6
CONTINUOUS
10
11.9121
20
-14.9694
11
11.9121
21
-15.5206
0
LINE
8
BLACK
6
CONTINUOUS
10
11.9121
20
-15.5206
11
11.3609
21
-15.5206
0
LINE
8
BLACK
6
CONTINUOUS
10
11.3609
20
-15.5206
11
11.3609
21
-14.9694
0
LINE
8
BLACK
6
CONTINUOUS
10
16.6544
20
-16.0921
11
17.2056
21
-16.0921
0
LINE
8
BLACK
6
CONTINUOUS
10
17.2056
20
-16.0921
11
17.2056
21
-16.6433
0
LINE
8
BLACK
6
CONTINUOUS
10
17.2056
20
-16.6433
11
16.6544
21
-16.6433
0
LINE
8
BLACK
6
CONTINUOUS
10
16.6544
20
-16.6433
11
16.6544
21
-16.0921
0
LINE
8
BLACK
6
CONTINUOUS
10
9.32089
20
-15.4894
11
9.87207
21
-15.4894
0
LINE
8
BLACK
6
CONTINUOUS
10
9.87207
20
-15.4894
11
9.87207
21
-16.0406
0
LINE
8
BLACK
6
CONTINUOUS
10
9.87207
20
-16.0406
11
9.32089
21
-16.0406
0
LINE
8
BLACK
6
CONTINUOUS
10
9.32089
20
-16.0406
11
9.32089
21
-15.4894
0
LINE
8
BLACK
6
CONTINUOUS
10
18.6944
20
-15.8121
11
19.2456
21
-15.8121
0
LINE
8
BLACK
6
CONTINUOUS
10
19.2456
20
-15.8121
11
19.2456
21
-16.3633
0
LINE
8
BLACK
6
CONTINUOUS
10
19.2456
20
-16.3633
11
18.6944
21
-16.3633
0
LINE
8
BLACK
6
CONTINUOUS
10
18.6944
20
-16.3633
11
18.6944
21
-15.8121
0
LINE
8
BLACK
6
CONTINUOUS
10
10.6809
20
-14.8894
11
11.2321
21
-14.8894
0
LINE
8
BLACK
6
CONTINUOUS
10
11.2321
20
-14.8894
11
11.2321
21
-15.4406
0
LINE
8
BLACK
6
CONTINUOUS
10
11.2321
20
-15.4406
11
10.6809
21
-15.4406
0
LINE
8
BLACK
6
CONTINUOUS
10
10.6809
20
-15.4406
11
10.6809
21
-14.8894
0
LINE
8
BLACK
6
CONTINUOUS
10
18.6944
20
-16.4121
11
19.2456
21
-16.4121
0
LINE
8
BLACK
6
CONTINUOUS
10
19.2456
20
-16.4121
11
19.2456
21
-16.9633
0
LINE
8
BLACK
6
CONTINUOUS
10
19.2456
20
-16.9633
11
18.6944
21
-16.9633
0
LINE
8
BLACK
6
CONTINUOUS
10
18.6944
20
-16.9633
11
18.6944
21
-16.4121
0
LINE
8
BLACK
6
CONTINUOUS
10
18.6944
20
-15.2121
11
19.2456
21
-15.2121
0
LINE
8
BLACK
6
CONTINUOUS
10
19.2456
20
-15.2121
11
19.2456
21
-15.7633
0
LINE
8
BLACK
6
CONTINUOUS
10
19.2456
20
-15.7633
11
18.6944
21
-15.7633
0
LINE
8
BLACK
6
CONTINUOUS
10
18.6944
20
-15.7633
11
18.6944
21
-15.2121
0
LINE
8
BLACK
6
CONTINUOUS
10
17.3344
20
-15.9321
11
17.8856
21
-15.9321
0
LINE
8
BLACK
6
CONTINUOUS
10
17.8856
20
-15.9321
11
17.8856
21
-16.4833
0
LINE
8
BLACK
6
CONTINUOUS
10
17.8856
20
-16.4833
11
17.3344
21
-16.4833
0
LINE
8
BLACK
6
CONTINUOUS
10
17.3344
20
-16.4833
11
17.3344
21
-15.9321
0
LINE
8
BLACK
6
CONTINUOUS
10
10.6809
20
-16.0894
11
11.2321
21
-16.0894
0
LINE
8
BLACK
6
CONTINUOUS
10
11.2321
20
-16.0894
11
11.2321
21
-16.6406
0
LINE
8
BLACK
6
CONTINUOUS
10
11.2321
20
-16.6406
11
10.6809
21
-16.6406
0
LINE
8
BLACK
6
CONTINUOUS
10
10.6809
20
-16.6406
11
10.6809
21
-16.0894
0
LINE
8
BLACK
6
CONTINUOUS
10
8.64326
20
-16.4094
11
9.19444
21
-16.4094
0
LINE
8
BLACK
6
CONTINUOUS
10
9.19444
20
-16.4094
11
9.19444
21
-16.9606
0
LINE
8
BLACK
6
CONTINUOUS
10
9.19444
20
-16.9606
11
8.64326
21
-16.9606
0
LINE
8
BLACK
6
CONTINUOUS
10
8.64326
20
-16.9606
11
8.64326
21
-16.4094
0
CIRCLE
8
BLACK
10
13.7482
20
-14.15
40
0.0590551
0
LINE
8
BLACK
6
CONTINUOUS
10
9.32089
20
-14.8894
11
9.87207
21
-14.8894
0
LINE
8
BLACK
6
CONTINUOUS
10
9.87207
20
-14.8894
11
9.87207
21
-15.4406
0
LINE
8
BLACK
6
CONTINUOUS
10
9.87207
20
-15.4406
11
9.32089
21
-15.4406
0
LINE
8
BLACK
6
CONTINUOUS
10
9.32089
20
-15.4406
11
9.32089
21
-14.8894
0
LINE
8
BLACK
6
CONTINUOUS
10
12.0409
20
-15.6494
11
12.5921
21
-15.6494
0
LINE
8
BLACK
6
CONTINUOUS
10
12.5921
20
-15.6494
11
12.5921
21
-16.2006
0
LINE
8
BLACK
6
CONTINUOUS
10
12.5921
20
-16.2006
11
12.0409
21
-16.2006
0
LINE
8
BLACK
6
CONTINUOUS
10
12.0409
20
-16.2006
11
12.0409
21
-15.6494
0
CIRCLE
8
BLACK
10
11.3091
20
-16.34
40
0.0590551
0
LINE
8
BLACK
6
CONTINUOUS
10
16.6544
20
-14.2921
11
17.2056
21
-14.2921
0
LINE
8
BLACK
6
CONTINUOUS
10
17.2056
20
-14.2921
11
17.2056
21
-14.8433
0
LINE
8
BLACK
6
CONTINUOUS
10
17.2056
20
-14.8433
11
16.6544
21
-14.8433
0
LINE
8
BLACK
6
CONTINUOUS
10
16.6544
20
-14.8433
11
16.6544
21
-14.2921
0
LINE
8
BLACK
6
CONTINUOUS
10
16.6544
20
-15.4921
11
17.2056
21
-15.4921
0
LINE
8
BLACK
6
CONTINUOUS
10
17.2056
20
-15.4921
11
17.2056
21
-16.0433
0
LINE
8
BLACK
6
CONTINUOUS
10
17.2056
20
-16.0433
11
16.6544
21
-16.0433
0
LINE
8
BLACK
6
CONTINUOUS
10
16.6544
20
-16.0433
11
16.6544
21
-15.4921
0
LINE
8
BLACK
6
CONTINUOUS
10
11.3609
20
-14.3694
11
11.9121
21
-14.3694
0
LINE
8
BLACK
6
CONTINUOUS
10
11.9121
20
-14.3694
11
11.9121
21
-14.9206
0
LINE
8
BLACK
6
CONTINUOUS
10
11.9121
20
-14.9206
11
11.3609
21
-14.9206
0
LINE
8
BLACK
6
CONTINUOUS
10
11.3609
20
-14.9206
11
11.3609
21
-14.3694
0
LINE
8
BLACK
6
CONTINUOUS
10
15.2944
20
-15.0521
11
15.8456
21
-15.0521
0
LINE
8
BLACK
6
CONTINUOUS
10
15.8456
20
-15.0521
11
15.8456
21
-15.6033
0
LINE
8
BLACK
6
CONTINUOUS
10
15.8456
20
-15.6033
11
15.2944
21
-15.6033
0
LINE
8
BLACK
6
CONTINUOUS
10
15.2944
20
-15.6033
11
15.2944
21
-15.0521
0
LINE
8
BLACK
6
CONTINUOUS
10
18.0144
20
-14.2921
11
18.5656
21
-14.2921
0
LINE
8
BLACK
6
CONTINUOUS
10
18.5656
20
-14.2921
11
18.5656
21
-14.8433
0
LINE
8
BLACK
6
CONTINUOUS
10
18.5656
20
-14.8433
11
18.0144
21
-14.8433
0
LINE
8
BLACK
6
CONTINUOUS
10
18.0144
20
-14.8433
11
18.0144
21
-14.2921
0
LINE
8
BLACK
6
CONTINUOUS
10
8.64326
20
-14.6094
11
9.19444
21
-14.6094
0
LINE
8
BLACK
6
CONTINUOUS
10
9.19444
20
-14.6094
11
9.19444
21
-15.1606
0
LINE
8
BLACK
6
CONTINUOUS
10
9.19444
20
-15.1606
11
8.64326
21
-15.1606
0
LINE
8
BLACK
6
CONTINUOUS
10
8.64326
20
-15.1606
11
8.64326
21
-14.6094
0
LINE
8
BLACK
6
CONTINUOUS
10
15.9744
20
-14.9721
11
16.5256
21
-14.9721
0
LINE
8
BLACK
6
CONTINUOUS
10
16.5256
20
-14.9721
11
16.5256
21
-15.5233
0
LINE
8
BLACK
6
CONTINUOUS
10
16.5256
20
-15.5233
11
15.9744
21
-15.5233
0
LINE
8
BLACK
6
CONTINUOUS
10
15.9744
20
-15.5233
11
15.9744
21
-14.9721
0
CIRCLE
8
BLACK
10
14.15
20
-14.15
40
0.0590551
0
LINE
8
BLACK
6
CONTINUOUS
10
9.32089
20
-16.0894
11
9.87207
21
-16.0894
0
LINE
8
BLACK
6
CONTINUOUS
10
9.87207
20
-16.0894
11
9.87207
21
-16.6406
0
LINE
8
BLACK
6
CONTINUOUS
10
9.87207
20
-16.6406
11
9.32089
21
-16.6406
0
LINE
8
BLACK
6
CONTINUOUS
10
9.32089
20
-16.6406
11
9.32089
21
-16.0894
0
LINE
8
BLACK
6
CONTINUOUS
10
15.2944
20
-15.6521
11
15.8456
21
-15.6521
0
LINE
8
BLACK
6
CONTINUOUS
10
15.8456
20
-15.6521
11
15.8456
21
-16.2033
0
LINE
8
BLACK
6
CONTINUOUS
10
15.8456
20
-16.2033
11
15.2944
21
-16.2033
0
LINE
8
BLACK
6
CONTINUOUS
10
15.2944
20
-16.2033
11
15.2944
21
-15.6521
0
CIRCLE
8
BLACK
10
16.5891
20
-14.525
40
0.0590551
0
CIRCLE
8
BLACK
10
19.22
20
-14.12
40
0.0590551
0
LINE
8
BLACK
6
CONTINUOUS
10
11.3609
20
-15.5694
11
11.9121
21
-15.5694
0
LINE
8
BLACK
6
CONTINUOUS
10
11.9121
20
-15.5694
11
11.9121
21
-16.1206
0
LINE
8
BLACK
6
CONTINUOUS
10
11.9121
20
-16.1206
11
11.3609
21
-16.1206
0
LINE
8
BLACK
6
CONTINUOUS
10
11.3609
20
-16.1206
11
11.3609
21
-15.5694
0
LINE
8
BLACK
6
CONTINUOUS
10
15.9744
20
-16.1721
11
16.5256
21
-16.1721
0
LINE
8
BLACK
6
CONTINUOUS
10
16.5256
20
-16.1721
11
16.5256
21
-16.7233
0
LINE
8
BLACK
6
CONTINUOUS
10
16.5256
20
-16.7233
11
15.9744
21
-16.7233
0
LINE
8
BLACK
6
CONTINUOUS
10
15.9744
20
-16.7233
11
15.9744
21
-16.1721
0
LINE
8
BLACK
6
CONTINUOUS
10
10.0009
20
-15.3294
11
10.5521
21
-15.3294
0
LINE
8
BLACK
6
CONTINUOUS
10
10.5521
20
-15.3294
11
10.5521
21
-15.8806
0
LINE
8
BLACK
6
CONTINUOUS
10
10.5521
20
-15.8806
11
10.0009
21
-15.8806
0
LINE
8
BLACK
6
CONTINUOUS
10
10.0009
20
-15.8806
11
10.0009
21
-15.3294
0
LINE
8
BLACK
6
CONTINUOUS
10
10.0009
20
-14.1294
11
10.5521
21
-14.1294
0
LINE
8
BLACK
6
CONTINUOUS
10
10.5521
20
-14.1294
11
10.5521
21
-14.6806
0
LINE
8
BLACK
6
CONTINUOUS
10
10.5521
20
-14.6806
11
10.0009
21
-14.6806
0
LINE
8
BLACK
6
CONTINUOUS
10
10.0009
20
-14.6806
11
10.0009
21
-14.1294
0
LINE
8
BLACK
6
CONTINUOUS
10
10.0009
20
-14.7294
11
10.5521
21
-14.7294
0
LINE
8
BLACK
6
CONTINUOUS
10
10.5521
20
-14.7294
11
10.5521
21
-15.2806
0
LINE
8
BLACK
6
CONTINUOUS
10
10.5521
20
-15.2806
11
10.0009
21
-15.2806
0
LINE
8
BLACK
6
CONTINUOUS
10
10.0009
20
-15.2806
11
10.0009
21
-14.7294
0
LINE
8
BLACK
6
CONTINUOUS
10
17.3344
20
-14.1321
11
17.8856
21
-14.1321
0
LINE
8
BLACK
6
CONTINUOUS
10
17.8856
20
-14.1321
11
17.8856
21
-14.6833
0
LINE
8
BLACK
6
CONTINUOUS
10
17.8856
20
-14.6833
11
17.3344
21
-14.6833
0
LINE
8
BLACK
6
CONTINUOUS
10
17.3344
20
-14.6833
11
17.3344
21
-14.1321
0
CIRCLE
8
BLACK
10
11.3091
20
-14.525
40
0.0590551
0
LINE
8
BLACK
6
CONTINUOUS
10
18.6944
20
-14.6121
11
19.2456
21
-14.6121
0
LINE
8
BLACK
6
CONTINUOUS
10
19.2456
20
-14.6121
11
19.2456
21
-15.1633
0
LINE
8
BLACK
6
CONTINUOUS
10
19.2456
20
-15.1633
11
18.6944
21
-15.1633
0
LINE
8
BLACK
6
CONTINUOUS
10
18.6944
20
-15.1633
11
18.6944
21
-14.6121
0
LINE
8
BLACK
6
CONTINUOUS
10
15.2944
20
-16.2521
11
15.8456
21
-16.2521
0
LINE
8
BLACK
6
CONTINUOUS
10
15.8456
20
-16.2521
11
15.8456
21
-16.8033
0
LINE
8
BLACK
6
CONTINUOUS
10
15.8456
20
-16.8033
11
15.2944
21
-16.8033
0
LINE
8
BLACK
6
CONTINUOUS
10
15.2944
20
-16.8033
11
15.2944
21
-16.2521
0
LINE
8
BLACK
6
CONTINUOUS
10
8.64326
20
-15.2094
11
9.19444
21
-15.2094
0
LINE
8
BLACK
6
CONTINUOUS
10
9.19444
20
-15.2094
11
9.19444
21
-15.7606
0
LINE
8
BLACK
6
CONTINUOUS
10
9.19444
20
-15.7606
11
8.64326
21
-15.7606
0
LINE
8
BLACK
6
CONTINUOUS
10
8.64326
20
-15.7606
11
8.64326
21
-15.2094
0
LINE
8
BLACK
6
CONTINUOUS
10
16.6544
20
-14.8921
11
17.2056
21
-14.8921
0
LINE
8
BLACK
6
CONTINUOUS
10
17.2056
20
-14.8921
11
17.2056
21
-15.4433
0
LINE
8
BLACK
6
CONTINUOUS
10
17.2056
20
-15.4433
11
16.6544
21
-15.4433
0
LINE
8
BLACK
6
CONTINUOUS
10
16.6544
20
-15.4433
11
16.6544
21
-14.8921
0
LINE
8
BLACK
6
CONTINUOUS
10
15.9744
20
-15.5721
11
16.5256
21
-15.5721
0
LINE
8
BLACK
6
CONTINUOUS
10
16.5256
20
-15.5721
11
16.5256
21
-16.1233
0
LINE
8
BLACK
6
CONTINUOUS
10
16.5256
20
-16.1233
11
15.9744
21
-16.1233
0
LINE
8
BLACK
6
CONTINUOUS
10
15.9744
20
-16.1233
11
15.9744
21
-15.5721
0
LINE
8
BLACK
6
CONTINUOUS
10
10.0009
20
-15.9294
11
10.5521
21
-15.9294
0
LINE
8
BLACK
6
CONTINUOUS
10
10.5521
20
-15.9294
11
10.5521
21
-16.4806
0
LINE
8
BLACK
6
CONTINUOUS
10
10.5521
20
-16.4806
11
10.0009
21
-16.4806
0
LINE
8
BLACK
6
CONTINUOUS
10
10.0009
20
-16.4806
11
10.0009
21
-15.9294
0
CIRCLE
8
BLACK
10
8.67824
20
-14.12
40
0.0590551
0
CIRCLE
8
BLACK
10
12.1782
20
-16.97
40
0.0590551
0
LINE
8
BLACK
6
CONTINUOUS
10
15.9744
20
-14.3721
11
16.5256
21
-14.3721
0
LINE
8
BLACK
6
CONTINUOUS
10
16.5256
20
-14.3721
11
16.5256
21
-14.9233
0
LINE
8
BLACK
6
CONTINUOUS
10
16.5256
20
-14.9233
11
15.9744
21
-14.9233
0
LINE
8
BLACK
6
CONTINUOUS
10
15.9744
20
-14.9233
11
15.9744
21
-14.3721
0
LINE
8
BLACK
6
CONTINUOUS
10
12.0409
20
-15.0494
11
12.5921
21
-15.0494
0
LINE
8
BLACK
6
CONTINUOUS
10
12.5921
20
-15.0494
11
12.5921
21
-15.6006
0
LINE
8
BLACK
6
CONTINUOUS
10
12.5921
20
-15.6006
11
12.0409
21
-15.6006
0
LINE
8
BLACK
6
CONTINUOUS
10
12.0409
20
-15.6006
11
12.0409
21
-15.0494
0
LINE
8
BLACK
6
CONTINUOUS
10
13.8991
20
-17.1641
11
13.4291
21
-17.8341
0
LINE
8
BLACK
6
CONTINUOUS
10
13.4291
20
-17.8341
11
12.1791
21
-17.5041
0
LINE
8
BLACK
6
CONTINUOUS
10
12.1791
20
-17.5041
11
12.0291
21
-16.8041
0
LINE
8
BLACK
6
CONTINUOUS
10
12.0291
20
-16.8041
11
9.48912
21
-16.8041
0
LINE
8
BLACK
6
CONTINUOUS
10
9.48912
20
-16.8041
11
9.28912
21
-17.5241
0
LINE
8
BLACK
6
CONTINUOUS
10
9.28912
20
-17.5241
11
8.55912
21
-17.5241
0
LINE
8
BLACK
6
CONTINUOUS
10
8.55912
20
-17.5241
11
8.55912
21
-14
0
LINE
8
BLACK
6
CONTINUOUS
10
8.55912
20
-14
11
13.8982
21
-14
0
LINE
8
BLACK
6
CONTINUOUS
10
13.8982
20
-14
11
13.8991
21
-14
0
LINE
8
BLACK
6
CONTINUOUS
10
13.8991
20
-14
11
13.8991
21
-17.1641
0
LINE
8
BLACK
6
CONTINUOUS
10
17.3344
20
-15.3321
11
17.8856
21
-15.3321
0
LINE
8
BLACK
6
CONTINUOUS
10
17.8856
20
-15.3321
11
17.8856
21
-15.8833
0
LINE
8
BLACK
6
CONTINUOUS
10
17.8856
20
-15.8833
11
17.3344
21
-15.8833
0
LINE
8
BLACK
6
CONTINUOUS
10
17.3344
20
-15.8833
11
17.3344
21
-15.3321
0
LINE
8
BLACK
6
CONTINUOUS
10
11.3609
20
-16.1694
11
11.9121
21
-16.1694
0
LINE
8
BLACK
6
CONTINUOUS
10
11.9121
20
-16.1694
11
11.9121
21
-16.7206
0
LINE
8
BLACK
6
CONTINUOUS
10
11.9121
20
-16.7206
11
11.3609
21
-16.7206
0
LINE
8
BLACK
6
CONTINUOUS
10
11.3609
20
-16.7206
11
11.3609
21
-16.1694
0
LINE
8
BLACK
6
CONTINUOUS
10
15.2944
20
-14.4521
11
15.8456
21
-14.4521
0
LINE
8
BLACK
6
CONTINUOUS
10
15.8456
20
-14.4521
11
15.8456
21
-15.0033
0
LINE
8
BLACK
6
CONTINUOUS
10
15.8456
20
-15.0033
11
15.2944
21
-15.0033
0
LINE
8
BLACK
6
CONTINUOUS
10
15.2944
20
-15.0033
11
15.2944
21
-14.4521
0
LINE
8
BLACK
6
CONTINUOUS
10
8.64326
20
-15.8094
11
9.19444
21
-15.8094
0
LINE
8
BLACK
6
CONTINUOUS
10
9.19444
20
-15.8094
11
9.19444
21
-16.3606
0
LINE
8
BLACK
6
CONTINUOUS
10
9.19444
20
-16.3606
11
8.64326
21
-16.3606
0
LINE
8
BLACK
6
CONTINUOUS
10
8.64326
20
-16.3606
11
8.64326
21
-15.8094
  0
ENDSEC
  0
EOF
