%TF.GenerationSoftware,KiCad,Pcbnew,8.0.1*%
%TF.CreationDate,2024-03-27T08:46:18-04:00*%
%TF.ProjectId,split_keyboard,73706c69-745f-46b6-9579-626f6172642e,rev?*%
%TF.SameCoordinates,Original*%
%TF.FileFunction,Soldermask,Bot*%
%TF.FilePolarity,Negative*%
%FSLAX46Y46*%
G04 Gerber Fmt 4.6, Leading zero omitted, Abs format (unit mm)*
G04 Created by KiCad (PCBNEW 8.0.1) date 2024-03-27 08:46:18*
%MOMM*%
%LPD*%
G01*
G04 APERTURE LIST*
G04 Aperture macros list*
%AMRoundRect*
0 Rectangle with rounded corners*
0 $1 Rounding radius*
0 $2 $3 $4 $5 $6 $7 $8 $9 X,Y pos of 4 corners*
0 Add a 4 corners polygon primitive as box body*
4,1,4,$2,$3,$4,$5,$6,$7,$8,$9,$2,$3,0*
0 Add four circle primitives for the rounded corners*
1,1,$1+$1,$2,$3*
1,1,$1+$1,$4,$5*
1,1,$1+$1,$6,$7*
1,1,$1+$1,$8,$9*
0 Add four rect primitives between the rounded corners*
20,1,$1+$1,$2,$3,$4,$5,0*
20,1,$1+$1,$4,$5,$6,$7,0*
20,1,$1+$1,$6,$7,$8,$9,0*
20,1,$1+$1,$8,$9,$2,$3,0*%
%AMRotRect*
0 Rectangle, with rotation*
0 The origin of the aperture is its center*
0 $1 length*
0 $2 width*
0 $3 Rotation angle, in degrees counterclockwise*
0 Add horizontal line*
21,1,$1,$2,0,0,$3*%
G04 Aperture macros list end*
%ADD10C,0.000000*%
%ADD11RoundRect,0.050800X0.600000X0.450000X-0.600000X0.450000X-0.600000X-0.450000X0.600000X-0.450000X0*%
%ADD12C,2.900000*%
%ADD13C,5.000000*%
%ADD14RoundRect,0.050800X-0.600000X-0.450000X0.600000X-0.450000X0.600000X0.450000X-0.600000X0.450000X0*%
%ADD15C,1.900000*%
%ADD16C,5.050000*%
%ADD17C,2.600000*%
%ADD18C,3.600000*%
%ADD19R,1.700000X1.700000*%
%ADD20O,1.700000X1.700000*%
%ADD21RoundRect,0.050800X0.294615X0.689711X-0.744615X0.089711X-0.294615X-0.689711X0.744615X-0.089711X0*%
%ADD22RoundRect,0.050800X-0.744615X-0.089711X0.294615X-0.689711X0.744615X0.089711X-0.294615X0.689711X0*%
%ADD23C,2.000000*%
%ADD24C,0.800000*%
%ADD25O,2.000000X1.600000*%
%ADD26RoundRect,0.726600X0.000010X0.000010X-0.000010X0.000010X-0.000010X-0.000010X0.000010X-0.000010X0*%
%ADD27RoundRect,0.250000X0.450000X-0.262500X0.450000X0.262500X-0.450000X0.262500X-0.450000X-0.262500X0*%
%ADD28RotRect,0.700000X1.300000X150.000000*%
%ADD29R,0.700000X1.300000*%
%ADD30RoundRect,0.250000X0.250000X0.475000X-0.250000X0.475000X-0.250000X-0.475000X0.250000X-0.475000X0*%
%ADD31R,1.000000X2.800000*%
%ADD32R,0.600000X1.800000*%
%ADD33C,0.900000*%
%ADD34R,0.700000X1.500000*%
%ADD35R,1.000000X0.800000*%
%ADD36RoundRect,0.250000X-0.250000X-0.475000X0.250000X-0.475000X0.250000X0.475000X-0.250000X0.475000X0*%
%ADD37R,0.300000X0.850000*%
%ADD38R,0.850000X0.300000*%
%ADD39R,2.550000X2.550000*%
%ADD40RoundRect,0.101600X-0.330200X-0.635000X0.330200X-0.635000X0.330200X0.635000X-0.330200X0.635000X0*%
%ADD41R,1.600000X3.000000*%
%ADD42R,1.000000X5.500000*%
%ADD43RoundRect,0.250000X-0.475000X0.250000X-0.475000X-0.250000X0.475000X-0.250000X0.475000X0.250000X0*%
%ADD44RotRect,0.700000X1.300000X210.000000*%
%ADD45RoundRect,0.250000X-0.450000X0.262500X-0.450000X-0.262500X0.450000X-0.262500X0.450000X0.262500X0*%
%ADD46RoundRect,0.250000X0.475000X-0.250000X0.475000X0.250000X-0.475000X0.250000X-0.475000X-0.250000X0*%
%ADD47RoundRect,0.250000X0.262500X0.450000X-0.262500X0.450000X-0.262500X-0.450000X0.262500X-0.450000X0*%
%ADD48RoundRect,0.250000X-0.262500X-0.450000X0.262500X-0.450000X0.262500X0.450000X-0.262500X0.450000X0*%
G04 APERTURE END LIST*
D10*
%TO.C,L_JP3*%
G36*
X176618900Y-70344500D02*
G01*
X176110900Y-70344500D01*
X176110900Y-69863500D01*
X176618900Y-69863500D01*
X176618900Y-70344500D01*
G37*
%TO.C,R_JP4*%
G36*
X217258900Y-67804500D02*
G01*
X216750900Y-67804500D01*
X216750900Y-67323500D01*
X217258900Y-67323500D01*
X217258900Y-67804500D01*
G37*
%TO.C,L_JP4*%
G36*
X176682400Y-67804500D02*
G01*
X176174400Y-67804500D01*
X176174400Y-67323500D01*
X176682400Y-67323500D01*
X176682400Y-67804500D01*
G37*
%TO.C,R_JP3*%
G36*
X217258900Y-70344500D02*
G01*
X216750900Y-70344500D01*
X216750900Y-69863500D01*
X217258900Y-69863500D01*
X217258900Y-70344500D01*
G37*
%TD*%
D11*
%TO.C,L_LED15*%
X99050000Y-65375000D03*
X99050000Y-66875000D03*
X104350000Y-66875000D03*
X104350000Y-65375000D03*
%TD*%
D12*
%TO.C,H_L3*%
X178963193Y-21100931D03*
D13*
X178963193Y-21100931D03*
%TD*%
D14*
%TO.C,L_LED8*%
X66250000Y-54968750D03*
X66250000Y-53468750D03*
X60950000Y-53468750D03*
X60950000Y-54968750D03*
%TD*%
D15*
%TO.C,L_SW23*%
X115470000Y-92756250D03*
D16*
X120970000Y-92756250D03*
D17*
X125970000Y-87606250D03*
D15*
X126470000Y-92756250D03*
D18*
X120970000Y-98656250D03*
X115970000Y-96556250D03*
%TD*%
D15*
%TO.C,L_SW2*%
X115470000Y-35606250D03*
D16*
X120970000Y-35606250D03*
D17*
X125970000Y-30456250D03*
D15*
X126470000Y-35606250D03*
D18*
X120970000Y-41506250D03*
X115970000Y-39406250D03*
%TD*%
D14*
%TO.C,L_LED24*%
X142450000Y-90687500D03*
X142450000Y-89187500D03*
X137150000Y-89187500D03*
X137150000Y-90687500D03*
%TD*%
D12*
%TO.C,H_L4*%
X166963193Y-69100931D03*
D13*
X166963193Y-69100931D03*
%TD*%
D15*
%TO.C,L_SW12*%
X134520000Y-57037500D03*
D16*
X140020000Y-57037500D03*
D17*
X145020000Y-51887500D03*
D15*
X145520000Y-57037500D03*
D18*
X140020000Y-62937500D03*
X135020000Y-60837500D03*
%TD*%
D15*
%TO.C,L_SW19*%
X39270000Y-102376500D03*
D16*
X44770000Y-102376500D03*
D17*
X49770000Y-97226500D03*
D15*
X50270000Y-102376500D03*
D18*
X44770000Y-108276500D03*
X39770000Y-106176500D03*
%TD*%
D11*
%TO.C,R_LED23*%
X251450000Y-86901500D03*
X251450000Y-88401500D03*
X256750000Y-88401500D03*
X256750000Y-86901500D03*
%TD*%
D15*
%TO.C,R_SW19*%
X325020000Y-102376500D03*
D16*
X330520000Y-102376500D03*
D17*
X335520000Y-97226500D03*
D15*
X336020000Y-102376500D03*
D18*
X330520000Y-108276500D03*
X325520000Y-106176500D03*
%TD*%
D15*
%TO.C,L_SW11*%
X115470000Y-54656250D03*
D16*
X120970000Y-54656250D03*
D17*
X125970000Y-49506250D03*
D15*
X126470000Y-54656250D03*
D18*
X120970000Y-60556250D03*
X115970000Y-58456250D03*
%TD*%
D15*
%TO.C,R_SW5*%
X305970000Y-40464000D03*
D16*
X311470000Y-40464000D03*
D17*
X316470000Y-35314000D03*
D15*
X316970000Y-40464000D03*
D18*
X311470000Y-46364000D03*
X306470000Y-44264000D03*
%TD*%
D15*
%TO.C,L_SW4*%
X77370000Y-35606250D03*
D16*
X82870000Y-35606250D03*
D17*
X87870000Y-30456250D03*
D15*
X88370000Y-35606250D03*
D18*
X82870000Y-41506250D03*
X77870000Y-39406250D03*
%TD*%
D19*
%TO.C,L_IOExp_Pinout1*%
X84698971Y-18378012D03*
D20*
X87238971Y-18378012D03*
X89778971Y-18378012D03*
X92318971Y-18378012D03*
X94858971Y-18378012D03*
X97398971Y-18378012D03*
%TD*%
D19*
%TO.C,R_IOExp_Pinout1*%
X290365119Y-18379491D03*
D20*
X287825119Y-18379491D03*
X285285119Y-18379491D03*
X282745119Y-18379491D03*
X280205119Y-18379491D03*
X277665119Y-18379491D03*
%TD*%
D15*
%TO.C,L_SW16*%
X77370000Y-73706250D03*
D16*
X82870000Y-73706250D03*
D17*
X87870000Y-68556250D03*
D15*
X88370000Y-73706250D03*
D18*
X82870000Y-79606250D03*
X77870000Y-77506250D03*
%TD*%
D14*
%TO.C,R_LED14*%
X256750000Y-69351500D03*
X256750000Y-67851500D03*
X251450000Y-67851500D03*
X251450000Y-69351500D03*
%TD*%
D12*
%TO.C,H_L5*%
X175963193Y-114100931D03*
D13*
X175963193Y-114100931D03*
%TD*%
D15*
%TO.C,R_SW22*%
X267870000Y-90375000D03*
D16*
X273370000Y-90375000D03*
D17*
X278370000Y-85225000D03*
D15*
X278870000Y-90375000D03*
D18*
X273370000Y-96275000D03*
X268370000Y-94175000D03*
%TD*%
D15*
%TO.C,L_SW18*%
X39270000Y-83326500D03*
D16*
X44770000Y-83326500D03*
D17*
X49770000Y-78176500D03*
D15*
X50270000Y-83326500D03*
D18*
X44770000Y-89226500D03*
X39770000Y-87126500D03*
%TD*%
D12*
%TO.C,H_L1*%
X37963193Y-114100931D03*
D13*
X37963193Y-114100931D03*
%TD*%
D21*
%TO.C,R_LED26*%
X199757879Y-124018165D03*
X200507879Y-125317203D03*
X205097813Y-122667203D03*
X204347813Y-121368165D03*
%TD*%
D15*
%TO.C,L_SW24*%
X134520000Y-95137500D03*
D16*
X140020000Y-95137500D03*
D17*
X145020000Y-89987500D03*
D15*
X145520000Y-95137500D03*
D18*
X140020000Y-101037500D03*
X135020000Y-98937500D03*
%TD*%
D15*
%TO.C,R_SW25*%
X216939832Y-120961016D03*
D16*
X221702971Y-118211016D03*
D17*
X223458098Y-111250985D03*
D15*
X226466111Y-115461016D03*
D18*
X224652971Y-123320566D03*
X219272844Y-124001913D03*
%TD*%
D15*
%TO.C,R_SW11*%
X248820000Y-54751499D03*
D16*
X254320000Y-54751499D03*
D17*
X259320000Y-49601499D03*
D15*
X259820000Y-54751499D03*
D18*
X254320000Y-60651499D03*
X249320000Y-58551499D03*
%TD*%
D11*
%TO.C,R_LED22*%
X270500000Y-84425000D03*
X270500000Y-85925000D03*
X275800000Y-85925000D03*
X275800000Y-84425000D03*
%TD*%
%TO.C,R_LED8*%
X308600000Y-53564000D03*
X308600000Y-55064000D03*
X313900000Y-55064000D03*
X313900000Y-53564000D03*
%TD*%
D22*
%TO.C,L_LED26*%
X174412155Y-125094246D03*
X175162155Y-123795208D03*
X170572221Y-121145208D03*
X169822221Y-122444246D03*
%TD*%
D19*
%TO.C,R_S3_Pinout1*%
X272585119Y-18379491D03*
D20*
X270045119Y-18379491D03*
X267505119Y-18379491D03*
X264965119Y-18379491D03*
X262425119Y-18379491D03*
X259885119Y-18379491D03*
X257345119Y-18379491D03*
X254805119Y-18379491D03*
X252265119Y-18379491D03*
X249725119Y-18379491D03*
%TD*%
D15*
%TO.C,L_SW13*%
X134520000Y-76087500D03*
D16*
X140020000Y-76087500D03*
D17*
X145020000Y-70937500D03*
D15*
X145520000Y-76087500D03*
D18*
X140020000Y-81987500D03*
X135020000Y-79887500D03*
%TD*%
D15*
%TO.C,R_SW21*%
X286920000Y-92851500D03*
D16*
X292420000Y-92851500D03*
D17*
X297420000Y-87701500D03*
D15*
X297920000Y-92851500D03*
D18*
X292420000Y-98751500D03*
X287420000Y-96651500D03*
%TD*%
D23*
%TO.C,L_T-Display-S3*%
X155700136Y-75184000D03*
X155700136Y-72644000D03*
X155700136Y-70104000D03*
X155700136Y-67564000D03*
X155700136Y-65024000D03*
X155700136Y-62484000D03*
X155700136Y-59944000D03*
X155700136Y-57404000D03*
X155700136Y-54864000D03*
X155700136Y-52324000D03*
X155700136Y-49784000D03*
X155700136Y-47244000D03*
X178562000Y-75184000D03*
X178562000Y-72644000D03*
X178562000Y-70104000D03*
X178562000Y-67564000D03*
X178562000Y-65024000D03*
X178562000Y-62484000D03*
X178562000Y-59944000D03*
X178562000Y-57404000D03*
X178562000Y-54864000D03*
X178562000Y-52324000D03*
X178562000Y-49784000D03*
X178562000Y-47244000D03*
%TD*%
D11*
%TO.C,L_LED16*%
X80000000Y-67756250D03*
X80000000Y-69256250D03*
X85300000Y-69256250D03*
X85300000Y-67756250D03*
%TD*%
D12*
%TO.C,H_R3*%
X196337892Y-21103888D03*
D13*
X196337892Y-21103888D03*
%TD*%
D15*
%TO.C,R_SW20*%
X305970000Y-97614000D03*
D16*
X311470000Y-97614000D03*
D17*
X316470000Y-92464000D03*
D15*
X316970000Y-97614000D03*
D18*
X311470000Y-103514000D03*
X306470000Y-101414000D03*
%TD*%
D14*
%TO.C,L_LED12*%
X142450000Y-52587500D03*
X142450000Y-51087500D03*
X137150000Y-51087500D03*
X137150000Y-52587500D03*
%TD*%
D11*
%TO.C,R_LED7*%
X327650000Y-58326500D03*
X327650000Y-59826500D03*
X332950000Y-59826500D03*
X332950000Y-58326500D03*
%TD*%
D15*
%TO.C,L_SW20*%
X58320000Y-97518750D03*
D16*
X63820000Y-97518750D03*
D17*
X68820000Y-92368750D03*
D15*
X69320000Y-97518750D03*
D18*
X63820000Y-103418750D03*
X58820000Y-101318750D03*
%TD*%
D11*
%TO.C,L_LED1*%
X137150000Y-32037500D03*
X137150000Y-33537500D03*
X142450000Y-33537500D03*
X142450000Y-32037500D03*
%TD*%
D15*
%TO.C,L_SW22*%
X96420000Y-90375000D03*
D16*
X101920000Y-90375000D03*
D17*
X106920000Y-85225000D03*
D15*
X107420000Y-90375000D03*
D18*
X101920000Y-96275000D03*
X96920000Y-94175000D03*
%TD*%
D11*
%TO.C,R_LED24*%
X232400000Y-89187500D03*
X232400000Y-90687500D03*
X237700000Y-90687500D03*
X237700000Y-89187500D03*
%TD*%
D15*
%TO.C,L_SW15*%
X96420000Y-71325000D03*
D16*
X101920000Y-71325000D03*
D17*
X106920000Y-66175000D03*
D15*
X107420000Y-71325000D03*
D18*
X101920000Y-77225000D03*
X96920000Y-75125000D03*
%TD*%
D14*
%TO.C,L_LED9*%
X85300000Y-50206250D03*
X85300000Y-48706250D03*
X80000000Y-48706250D03*
X80000000Y-50206250D03*
%TD*%
D11*
%TO.C,R_LED21*%
X289550000Y-86901500D03*
X289550000Y-88401500D03*
X294850000Y-88401500D03*
X294850000Y-86901500D03*
%TD*%
D14*
%TO.C,R_LED15*%
X275800000Y-66875000D03*
X275800000Y-65375000D03*
X270500000Y-65375000D03*
X270500000Y-66875000D03*
%TD*%
D15*
%TO.C,L_SW3*%
X96420000Y-33225000D03*
D16*
X101920000Y-33225000D03*
D17*
X106920000Y-28075000D03*
D15*
X107420000Y-33225000D03*
D18*
X101920000Y-39125000D03*
X96920000Y-37025000D03*
%TD*%
D12*
%TO.C,H_R5*%
X199337892Y-114103888D03*
D13*
X199337892Y-114103888D03*
%TD*%
D15*
%TO.C,L_SW17*%
X58320000Y-78468750D03*
D16*
X63820000Y-78468750D03*
D17*
X68820000Y-73318750D03*
D15*
X69320000Y-78468750D03*
D18*
X63820000Y-84368750D03*
X58820000Y-82268750D03*
%TD*%
D14*
%TO.C,L_LED22*%
X104350000Y-85925000D03*
X104350000Y-84425000D03*
X99050000Y-84425000D03*
X99050000Y-85925000D03*
%TD*%
D11*
%TO.C,L_LED3*%
X99050000Y-27275000D03*
X99050000Y-28775000D03*
X104350000Y-28775000D03*
X104350000Y-27275000D03*
%TD*%
D14*
%TO.C,L_LED11*%
X123400000Y-50206250D03*
X123400000Y-48706250D03*
X118100000Y-48706250D03*
X118100000Y-50206250D03*
%TD*%
D23*
%TO.C,R_T-Display-S3*%
X196347071Y-75181116D03*
X196347071Y-72641116D03*
X196347071Y-70101116D03*
X196347071Y-67561116D03*
X196347071Y-65021116D03*
X196347071Y-62481116D03*
X196347071Y-59941116D03*
X196347071Y-57401116D03*
X196347071Y-54861116D03*
X196347071Y-52321116D03*
X196347071Y-49781116D03*
X196347071Y-47241116D03*
X219208935Y-75181116D03*
X219208935Y-72641116D03*
X219208935Y-70101116D03*
X219208935Y-67561116D03*
X219208935Y-65021116D03*
X219208935Y-62481116D03*
X219208935Y-59941116D03*
X219208935Y-57401116D03*
X219208935Y-54861116D03*
X219208935Y-52321116D03*
X219208935Y-49781116D03*
X219208935Y-47241116D03*
%TD*%
D15*
%TO.C,R_SW12*%
X229770000Y-57037500D03*
D16*
X235270000Y-57037500D03*
D17*
X240270000Y-51887500D03*
D15*
X240770000Y-57037500D03*
D18*
X235270000Y-62937500D03*
X230270000Y-60837500D03*
%TD*%
D15*
%TO.C,R_SW16*%
X286920000Y-73801500D03*
D16*
X292420000Y-73801500D03*
D17*
X297420000Y-68651500D03*
D15*
X297920000Y-73801500D03*
D18*
X292420000Y-79701500D03*
X287420000Y-77601500D03*
%TD*%
D15*
%TO.C,R_SW24*%
X229770000Y-95137500D03*
D16*
X235270000Y-95137500D03*
D17*
X240270000Y-89987500D03*
D15*
X240770000Y-95137500D03*
D18*
X235270000Y-101037500D03*
X230270000Y-98937500D03*
%TD*%
D15*
%TO.C,L_SW7*%
X39270000Y-64276500D03*
D16*
X44770000Y-64276500D03*
D17*
X49770000Y-59126500D03*
D15*
X50270000Y-64276500D03*
D18*
X44770000Y-70176500D03*
X39770000Y-68076500D03*
%TD*%
D12*
%TO.C,H_R1*%
X337337892Y-114103888D03*
D13*
X337337892Y-114103888D03*
%TD*%
D11*
%TO.C,L_LED2*%
X118100000Y-29656250D03*
X118100000Y-31156250D03*
X123400000Y-31156250D03*
X123400000Y-29656250D03*
%TD*%
D15*
%TO.C,R_SW15*%
X267870000Y-71325000D03*
D16*
X273370000Y-71325000D03*
D17*
X278370000Y-66175000D03*
D15*
X278870000Y-71325000D03*
D18*
X273370000Y-77225000D03*
X268370000Y-75125000D03*
%TD*%
D11*
%TO.C,L_LED13*%
X137150000Y-70137500D03*
X137150000Y-71637500D03*
X142450000Y-71637500D03*
X142450000Y-70137500D03*
%TD*%
D15*
%TO.C,R_SW4*%
X286920000Y-35701500D03*
D16*
X292420000Y-35701500D03*
D17*
X297420000Y-30551500D03*
D15*
X297920000Y-35701500D03*
D18*
X292420000Y-41601500D03*
X287420000Y-39501500D03*
%TD*%
D19*
%TO.C,R_BAT_EXT2*%
X208534000Y-54508400D03*
D20*
X211074000Y-54508400D03*
%TD*%
D15*
%TO.C,R_SW2*%
X248820000Y-35701500D03*
D16*
X254320000Y-35701500D03*
D17*
X259320000Y-30551500D03*
D15*
X259820000Y-35701500D03*
D18*
X254320000Y-41601500D03*
X249320000Y-39501500D03*
%TD*%
D11*
%TO.C,L_LED18*%
X41900000Y-77376500D03*
X41900000Y-78876500D03*
X47200000Y-78876500D03*
X47200000Y-77376500D03*
%TD*%
D15*
%TO.C,L_SW8*%
X58320000Y-59418750D03*
D16*
X63820000Y-59418750D03*
D17*
X68820000Y-54268750D03*
D15*
X69320000Y-59418750D03*
D18*
X63820000Y-65318750D03*
X58820000Y-63218750D03*
%TD*%
D15*
%TO.C,R_SW7*%
X325020000Y-64276500D03*
D16*
X330520000Y-64276500D03*
D17*
X335520000Y-59126500D03*
D15*
X336020000Y-64276500D03*
D18*
X330520000Y-70176500D03*
X325520000Y-68076500D03*
%TD*%
D11*
%TO.C,R_LED11*%
X251450000Y-48801499D03*
X251450000Y-50301499D03*
X256750000Y-50301499D03*
X256750000Y-48801499D03*
%TD*%
D14*
%TO.C,R_LED2*%
X256750000Y-31251500D03*
X256750000Y-29751500D03*
X251450000Y-29751500D03*
X251450000Y-31251500D03*
%TD*%
%TO.C,R_LED16*%
X294850000Y-69351500D03*
X294850000Y-67851500D03*
X289550000Y-67851500D03*
X289550000Y-69351500D03*
%TD*%
%TO.C,L_LED10*%
X104350000Y-47825000D03*
X104350000Y-46325000D03*
X99050000Y-46325000D03*
X99050000Y-47825000D03*
%TD*%
%TO.C,L_LED7*%
X47200000Y-59826500D03*
X47200000Y-58326500D03*
X41900000Y-58326500D03*
X41900000Y-59826500D03*
%TD*%
D24*
%TO.C,R_TRRS1*%
X197947071Y-92161116D03*
X204947071Y-92161116D03*
D25*
X207647071Y-94461116D03*
X206547071Y-89861116D03*
X202547071Y-89861116D03*
X199547071Y-89861116D03*
%TD*%
D14*
%TO.C,R_LED3*%
X275800000Y-28775000D03*
X275800000Y-27275000D03*
X270500000Y-27275000D03*
X270500000Y-28775000D03*
%TD*%
D11*
%TO.C,L_LED4*%
X80000000Y-29656250D03*
X80000000Y-31156250D03*
X85300000Y-31156250D03*
X85300000Y-29656250D03*
%TD*%
D15*
%TO.C,R_SW3*%
X267870000Y-33225000D03*
D16*
X273370000Y-33225000D03*
D17*
X278370000Y-28075000D03*
D15*
X278870000Y-33225000D03*
D18*
X273370000Y-39125000D03*
X268370000Y-37025000D03*
%TD*%
D15*
%TO.C,R_SW9*%
X286920000Y-54751499D03*
D16*
X292420000Y-54751499D03*
D17*
X297420000Y-49601499D03*
D15*
X297920000Y-54751499D03*
D18*
X292420000Y-60651499D03*
X287420000Y-58551499D03*
%TD*%
D12*
%TO.C,H_R6*%
X230337892Y-19353888D03*
D13*
X230337892Y-19353888D03*
%TD*%
D15*
%TO.C,R_SW10*%
X267870000Y-52275000D03*
D16*
X273370000Y-52275000D03*
D17*
X278370000Y-47125000D03*
D15*
X278870000Y-52275000D03*
D18*
X273370000Y-58175000D03*
X268370000Y-56075000D03*
%TD*%
D15*
%TO.C,L_SW25*%
X148821791Y-115458059D03*
D16*
X153584930Y-118208059D03*
D17*
X160490057Y-116248028D03*
D15*
X158348070Y-120958059D03*
D18*
X150634930Y-123317609D03*
X147354803Y-118998956D03*
%TD*%
D11*
%TO.C,L_LED5*%
X60950000Y-34418750D03*
X60950000Y-35918750D03*
X66250000Y-35918750D03*
X66250000Y-34418750D03*
%TD*%
D15*
%TO.C,R_SW6*%
X325020000Y-45226500D03*
D16*
X330520000Y-45226500D03*
D17*
X335520000Y-40076500D03*
D15*
X336020000Y-45226500D03*
D18*
X330520000Y-51126500D03*
X325520000Y-49026500D03*
%TD*%
D11*
%TO.C,R_LED20*%
X308600000Y-91664000D03*
X308600000Y-93164000D03*
X313900000Y-93164000D03*
X313900000Y-91664000D03*
%TD*%
D19*
%TO.C,L_BAT_EXT2*%
X163825000Y-54508400D03*
D20*
X166365000Y-54508400D03*
%TD*%
D12*
%TO.C,H_L6*%
X144963193Y-19350931D03*
D13*
X144963193Y-19350931D03*
%TD*%
D15*
%TO.C,L_SW9*%
X77370000Y-54656250D03*
D16*
X82870000Y-54656250D03*
D17*
X87870000Y-49506250D03*
D15*
X88370000Y-54656250D03*
D18*
X82870000Y-60556250D03*
X77870000Y-58456250D03*
%TD*%
D14*
%TO.C,L_LED19*%
X47200000Y-97926500D03*
X47200000Y-96426500D03*
X41900000Y-96426500D03*
X41900000Y-97926500D03*
%TD*%
%TO.C,L_LED21*%
X85300000Y-88306250D03*
X85300000Y-86806250D03*
X80000000Y-86806250D03*
X80000000Y-88306250D03*
%TD*%
D21*
%TO.C,R_LED25*%
X216242479Y-114493165D03*
X216992479Y-115792203D03*
X221582413Y-113142203D03*
X220832413Y-111843165D03*
%TD*%
D15*
%TO.C,L_SW14*%
X115470000Y-73706250D03*
D16*
X120970000Y-73706250D03*
D17*
X125970000Y-68556250D03*
D15*
X126470000Y-73706250D03*
D18*
X120970000Y-79606250D03*
X115970000Y-77506250D03*
%TD*%
D15*
%TO.C,L_SW6*%
X39270000Y-45226500D03*
D16*
X44770000Y-45226500D03*
D17*
X49770000Y-40076500D03*
D15*
X50270000Y-45226500D03*
D18*
X44770000Y-51126500D03*
X39770000Y-49026500D03*
%TD*%
D15*
%TO.C,R_SW14*%
X248820000Y-73801500D03*
D16*
X254320000Y-73801500D03*
D17*
X259320000Y-68651500D03*
D15*
X259820000Y-73801500D03*
D18*
X254320000Y-79701500D03*
X249320000Y-77601500D03*
%TD*%
D24*
%TO.C,TRRS_L1*%
X176985971Y-92159637D03*
X169985971Y-92159637D03*
D25*
X167285971Y-89859637D03*
X168385971Y-94459637D03*
X172385971Y-94459637D03*
X175385971Y-94459637D03*
%TD*%
D14*
%TO.C,R_LED17*%
X313900000Y-74114000D03*
X313900000Y-72614000D03*
X308600000Y-72614000D03*
X308600000Y-74114000D03*
%TD*%
D15*
%TO.C,R_SW18*%
X325020000Y-83326500D03*
D16*
X330520000Y-83326500D03*
D17*
X335520000Y-78176500D03*
D15*
X336020000Y-83326500D03*
D18*
X330520000Y-89226500D03*
X325520000Y-87126500D03*
%TD*%
D11*
%TO.C,R_LED9*%
X289550000Y-48801499D03*
X289550000Y-50301499D03*
X294850000Y-50301499D03*
X294850000Y-48801499D03*
%TD*%
%TO.C,R_LED12*%
X232400000Y-51087500D03*
X232400000Y-52587500D03*
X237700000Y-52587500D03*
X237700000Y-51087500D03*
%TD*%
D14*
%TO.C,R_LED4*%
X294850000Y-31251500D03*
X294850000Y-29751500D03*
X289550000Y-29751500D03*
X289550000Y-31251500D03*
%TD*%
%TO.C,R_LED13*%
X237700000Y-71637500D03*
X237700000Y-70137500D03*
X232400000Y-70137500D03*
X232400000Y-71637500D03*
%TD*%
%TO.C,R_LED1*%
X237700000Y-33537500D03*
X237700000Y-32037500D03*
X232400000Y-32037500D03*
X232400000Y-33537500D03*
%TD*%
D15*
%TO.C,L_SW10*%
X96420000Y-52275000D03*
D16*
X101920000Y-52275000D03*
D17*
X106920000Y-47125000D03*
D15*
X107420000Y-52275000D03*
D18*
X101920000Y-58175000D03*
X96920000Y-56075000D03*
%TD*%
D14*
%TO.C,L_LED23*%
X123400000Y-88306250D03*
X123400000Y-86806250D03*
X118100000Y-86806250D03*
X118100000Y-88306250D03*
%TD*%
D15*
%TO.C,R_SW23*%
X248820000Y-92851500D03*
D16*
X254320000Y-92851500D03*
D17*
X259320000Y-87701500D03*
D15*
X259820000Y-92851500D03*
D18*
X254320000Y-98751500D03*
X249320000Y-96651500D03*
%TD*%
D19*
%TO.C,L_S3_Pinout1*%
X102478971Y-18378012D03*
D20*
X105018971Y-18378012D03*
X107558971Y-18378012D03*
X110098971Y-18378012D03*
X112638971Y-18378012D03*
X115178971Y-18378012D03*
X117718971Y-18378012D03*
X120258971Y-18378012D03*
X122798971Y-18378012D03*
X125338971Y-18378012D03*
%TD*%
D15*
%TO.C,R_SW26*%
X200455232Y-130486016D03*
D16*
X205218371Y-127736016D03*
D17*
X206973498Y-120775985D03*
D15*
X209981511Y-124986016D03*
D18*
X208168371Y-132845566D03*
X202788244Y-133526913D03*
%TD*%
D15*
%TO.C,R_SW1*%
X229770000Y-37987500D03*
D16*
X235270000Y-37987500D03*
D17*
X240270000Y-32837500D03*
D15*
X240770000Y-37987500D03*
D18*
X235270000Y-43887500D03*
X230270000Y-41787500D03*
%TD*%
D15*
%TO.C,L_SW1*%
X134520000Y-37987500D03*
D16*
X140020000Y-37987500D03*
D17*
X145020000Y-32837500D03*
D15*
X145520000Y-37987500D03*
D18*
X140020000Y-43887500D03*
X135020000Y-41787500D03*
%TD*%
D15*
%TO.C,R_SW8*%
X305970000Y-59514000D03*
D16*
X311470000Y-59514000D03*
D17*
X316470000Y-54364000D03*
D15*
X316970000Y-59514000D03*
D18*
X311470000Y-65414000D03*
X306470000Y-63314000D03*
%TD*%
D12*
%TO.C,H_R2*%
X336337892Y-21103888D03*
D13*
X336337892Y-21103888D03*
%TD*%
D14*
%TO.C,R_LED6*%
X332950000Y-40776500D03*
X332950000Y-39276500D03*
X327650000Y-39276500D03*
X327650000Y-40776500D03*
%TD*%
D15*
%TO.C,L_SW5*%
X58320000Y-40368750D03*
D16*
X63820000Y-40368750D03*
D17*
X68820000Y-35218750D03*
D15*
X69320000Y-40368750D03*
D18*
X63820000Y-46268750D03*
X58820000Y-44168750D03*
%TD*%
D12*
%TO.C,H_L2*%
X38963193Y-21100931D03*
D13*
X38963193Y-21100931D03*
%TD*%
D11*
%TO.C,R_LED10*%
X270500000Y-46325000D03*
X270500000Y-47825000D03*
X275800000Y-47825000D03*
X275800000Y-46325000D03*
%TD*%
D15*
%TO.C,R_SW17*%
X305970000Y-78564000D03*
D16*
X311470000Y-78564000D03*
D17*
X316470000Y-73414000D03*
D15*
X316970000Y-78564000D03*
D18*
X311470000Y-84464000D03*
X306470000Y-82364000D03*
%TD*%
D22*
%TO.C,L_LED25*%
X157914371Y-115569246D03*
X158664371Y-114270208D03*
X154074437Y-111620208D03*
X153324437Y-112919246D03*
%TD*%
D14*
%TO.C,L_LED20*%
X66250000Y-93068750D03*
X66250000Y-91568750D03*
X60950000Y-91568750D03*
X60950000Y-93068750D03*
%TD*%
D12*
%TO.C,H_R4*%
X208337892Y-69103888D03*
D13*
X208337892Y-69103888D03*
%TD*%
D11*
%TO.C,R_LED19*%
X327650000Y-96426500D03*
X327650000Y-97926500D03*
X332950000Y-97926500D03*
X332950000Y-96426500D03*
%TD*%
%TO.C,L_LED17*%
X60950000Y-72518750D03*
X60950000Y-74018750D03*
X66250000Y-74018750D03*
X66250000Y-72518750D03*
%TD*%
D15*
%TO.C,L_SW26*%
X165319575Y-124983059D03*
D16*
X170082714Y-127733059D03*
D17*
X176987841Y-125773028D03*
D15*
X174845854Y-130483059D03*
D18*
X167132714Y-132842609D03*
X163852587Y-128523956D03*
%TD*%
D11*
%TO.C,L_LED14*%
X118100000Y-67756250D03*
X118100000Y-69256250D03*
X123400000Y-69256250D03*
X123400000Y-67756250D03*
%TD*%
D14*
%TO.C,R_LED18*%
X332950000Y-78876500D03*
X332950000Y-77376500D03*
X327650000Y-77376500D03*
X327650000Y-78876500D03*
%TD*%
D15*
%TO.C,R_SW13*%
X229770000Y-76087500D03*
D16*
X235270000Y-76087500D03*
D17*
X240270000Y-70937500D03*
D15*
X240770000Y-76087500D03*
D18*
X235270000Y-81987500D03*
X230270000Y-79887500D03*
%TD*%
D14*
%TO.C,R_LED5*%
X313900000Y-36014000D03*
X313900000Y-34514000D03*
X308600000Y-34514000D03*
X308600000Y-36014000D03*
%TD*%
D15*
%TO.C,L_SW21*%
X77370000Y-92756250D03*
D16*
X82870000Y-92756250D03*
D17*
X87870000Y-87606250D03*
D15*
X88370000Y-92756250D03*
D18*
X82870000Y-98656250D03*
X77870000Y-96556250D03*
%TD*%
D11*
%TO.C,L_LED6*%
X41900000Y-39276500D03*
X41900000Y-40776500D03*
X47200000Y-40776500D03*
X47200000Y-39276500D03*
%TD*%
D26*
%TO.C,R_TP_RST1*%
X211429600Y-40792400D03*
%TD*%
D27*
%TO.C,L_R2*%
X163703000Y-36980500D03*
X163703000Y-35155500D03*
%TD*%
D28*
%TO.C,L_D26*%
X167734786Y-123259791D03*
X166089338Y-122309791D03*
%TD*%
D26*
%TO.C,R_TP_VCC1*%
X229744510Y-28397200D03*
%TD*%
%TO.C,L_TP_GND1*%
X148031200Y-28397200D03*
%TD*%
D29*
%TO.C,R_D17*%
X307200000Y-75864000D03*
X305300000Y-75864000D03*
%TD*%
D30*
%TO.C,R_C4*%
X230820000Y-89027000D03*
X228920000Y-89027000D03*
%TD*%
D29*
%TO.C,L_D23*%
X116700000Y-90056250D03*
X114800000Y-90056250D03*
%TD*%
D31*
%TO.C,R_BAT2*%
X333728071Y-30591991D03*
X338428071Y-30591991D03*
D32*
X335453071Y-27241991D03*
X336703071Y-27241991D03*
%TD*%
D33*
%TO.C,L_SWB1*%
X56085971Y-19159637D03*
X61085971Y-19159637D03*
D34*
X55585971Y-20909637D03*
X57085971Y-20909637D03*
X60085971Y-20909637D03*
X61585971Y-20909637D03*
D35*
X53435971Y-20124637D03*
X63735971Y-20124637D03*
X53435971Y-18194637D03*
X63735971Y-18194637D03*
%TD*%
D29*
%TO.C,R_D20*%
X307200000Y-94914000D03*
X305300000Y-94914000D03*
%TD*%
D36*
%TO.C,R_C1*%
X335092000Y-42926000D03*
X336992000Y-42926000D03*
%TD*%
%TO.C,L_C4*%
X144592000Y-92583000D03*
X146492000Y-92583000D03*
%TD*%
D29*
%TO.C,L_D13*%
X135750000Y-73387500D03*
X133850000Y-73387500D03*
%TD*%
D37*
%TO.C,L_IO1*%
X156950136Y-39194000D03*
X156450136Y-39194000D03*
X155950136Y-39194000D03*
X155450136Y-39194000D03*
X154950136Y-39194000D03*
X154450136Y-39194000D03*
D38*
X153750136Y-38494000D03*
X153750136Y-37994000D03*
X153750136Y-37494000D03*
X153750136Y-36994000D03*
X153750136Y-36494000D03*
X153750136Y-35994000D03*
D37*
X154450136Y-35294000D03*
X154950136Y-35294000D03*
X155450136Y-35294000D03*
X155950136Y-35294000D03*
X156450136Y-35294000D03*
X156950136Y-35294000D03*
D38*
X157650136Y-35994000D03*
X157650136Y-36494000D03*
X157650136Y-36994000D03*
X157650136Y-37494000D03*
X157650136Y-37994000D03*
X157650136Y-38494000D03*
D39*
X155700136Y-37244000D03*
%TD*%
D29*
%TO.C,R_D6*%
X326250000Y-42526500D03*
X324350000Y-42526500D03*
%TD*%
%TO.C,L_D7*%
X40500000Y-61576500D03*
X38600000Y-61576500D03*
%TD*%
D30*
%TO.C,R_C2*%
X230759000Y-50927000D03*
X228859000Y-50927000D03*
%TD*%
D40*
%TO.C,L_JP3*%
X175844200Y-70104000D03*
X176885600Y-70104000D03*
%TD*%
D30*
%TO.C,L_C3*%
X40193000Y-77470000D03*
X38293000Y-77470000D03*
%TD*%
D29*
%TO.C,L_D5*%
X59550000Y-37668750D03*
X57650000Y-37668750D03*
%TD*%
D37*
%TO.C,R_IO1*%
X217958935Y-35291116D03*
X218458935Y-35291116D03*
X218958935Y-35291116D03*
X219458935Y-35291116D03*
X219958935Y-35291116D03*
X220458935Y-35291116D03*
D38*
X221158935Y-35991116D03*
X221158935Y-36491116D03*
X221158935Y-36991116D03*
X221158935Y-37491116D03*
X221158935Y-37991116D03*
X221158935Y-38491116D03*
D37*
X220458935Y-39191116D03*
X219958935Y-39191116D03*
X219458935Y-39191116D03*
X218958935Y-39191116D03*
X218458935Y-39191116D03*
X217958935Y-39191116D03*
D38*
X217258935Y-38491116D03*
X217258935Y-37991116D03*
X217258935Y-37491116D03*
X217258935Y-36991116D03*
X217258935Y-36491116D03*
X217258935Y-35991116D03*
D39*
X219208935Y-37241116D03*
%TD*%
D29*
%TO.C,L_D24*%
X135750000Y-92437500D03*
X133850000Y-92437500D03*
%TD*%
%TO.C,R_D7*%
X326250000Y-61576500D03*
X324350000Y-61576500D03*
%TD*%
D36*
%TO.C,L_C2*%
X144592000Y-54610000D03*
X146492000Y-54610000D03*
%TD*%
D29*
%TO.C,L_D14*%
X116700000Y-71006250D03*
X114800000Y-71006250D03*
%TD*%
D41*
%TO.C,L_BAT1*%
X43568471Y-29510512D03*
X50368471Y-29510512D03*
D42*
X45968471Y-27260512D03*
X47968471Y-27260512D03*
%TD*%
D26*
%TO.C,R_TP_LEDOUT1*%
X227228400Y-28397200D03*
%TD*%
D29*
%TO.C,R_D1*%
X231000000Y-35287500D03*
X229100000Y-35287500D03*
%TD*%
%TO.C,R_D2*%
X250050000Y-33001500D03*
X248150000Y-33001500D03*
%TD*%
D28*
%TO.C,L_D25*%
X151237002Y-113734791D03*
X149591554Y-112784791D03*
%TD*%
D33*
%TO.C,R_SWB1*%
X313952512Y-19161116D03*
X318952512Y-19161116D03*
D34*
X313452512Y-20911116D03*
X314952512Y-20911116D03*
X317952512Y-20911116D03*
X319452512Y-20911116D03*
D35*
X311302512Y-20126116D03*
X321602512Y-20126116D03*
X311302512Y-18196116D03*
X321602512Y-18196116D03*
%TD*%
D29*
%TO.C,R_D13*%
X231000000Y-73387500D03*
X229100000Y-73387500D03*
%TD*%
%TO.C,L_D21*%
X78600000Y-90056250D03*
X76700000Y-90056250D03*
%TD*%
D31*
%TO.C,L_BAT2*%
X36503471Y-30590512D03*
X41203471Y-30590512D03*
D32*
X38228471Y-27240512D03*
X39478471Y-27240512D03*
%TD*%
D29*
%TO.C,L_D15*%
X97650000Y-68625000D03*
X95750000Y-68625000D03*
%TD*%
%TO.C,L_D11*%
X116700000Y-51956250D03*
X114800000Y-51956250D03*
%TD*%
D40*
%TO.C,R_JP4*%
X216484200Y-67564000D03*
X217525600Y-67564000D03*
%TD*%
D43*
%TO.C,R_C5*%
X213868000Y-37277000D03*
X213868000Y-39177000D03*
%TD*%
D29*
%TO.C,L_D22*%
X97650000Y-87675000D03*
X95750000Y-87675000D03*
%TD*%
%TO.C,L_D1*%
X135750000Y-35287500D03*
X133850000Y-35287500D03*
%TD*%
%TO.C,R_D23*%
X250050000Y-90151500D03*
X248150000Y-90151500D03*
%TD*%
%TO.C,R_D16*%
X288150000Y-71101500D03*
X286250000Y-71101500D03*
%TD*%
D36*
%TO.C,R_C3*%
X335092000Y-80899000D03*
X336992000Y-80899000D03*
%TD*%
D44*
%TO.C,R_D25*%
X216655043Y-118007748D03*
X215009595Y-118957748D03*
%TD*%
D29*
%TO.C,R_D4*%
X288150000Y-33001500D03*
X286250000Y-33001500D03*
%TD*%
D26*
%TO.C,L_TP_INT1*%
X161036000Y-42164000D03*
%TD*%
D29*
%TO.C,L_D10*%
X97650000Y-49575000D03*
X95750000Y-49575000D03*
%TD*%
D45*
%TO.C,R_R2*%
X211455000Y-37314500D03*
X211455000Y-39139500D03*
%TD*%
D29*
%TO.C,R_D19*%
X326250000Y-99676500D03*
X324350000Y-99676500D03*
%TD*%
%TO.C,R_D5*%
X307200000Y-37764000D03*
X305300000Y-37764000D03*
%TD*%
%TO.C,L_D18*%
X40500000Y-80626500D03*
X38600000Y-80626500D03*
%TD*%
%TO.C,L_D6*%
X40500000Y-42526500D03*
X38600000Y-42526500D03*
%TD*%
%TO.C,L_D3*%
X97650000Y-30525000D03*
X95750000Y-30525000D03*
%TD*%
%TO.C,R_D3*%
X269100000Y-30525000D03*
X267200000Y-30525000D03*
%TD*%
D46*
%TO.C,L_C5*%
X161290000Y-37018000D03*
X161290000Y-35118000D03*
%TD*%
D29*
%TO.C,R_D12*%
X231000000Y-54337500D03*
X229100000Y-54337500D03*
%TD*%
D40*
%TO.C,L_JP4*%
X175907700Y-67564000D03*
X176949100Y-67564000D03*
%TD*%
D29*
%TO.C,R_D8*%
X307200000Y-56814000D03*
X305300000Y-56814000D03*
%TD*%
%TO.C,R_D14*%
X250050000Y-71101500D03*
X248150000Y-71101500D03*
%TD*%
D26*
%TO.C,L_TP_VCC1*%
X145491200Y-28397200D03*
%TD*%
%TO.C,R_TP_GND1*%
X232260620Y-28397200D03*
%TD*%
%TO.C,L_TP_LEDOUT1*%
X143002000Y-28397200D03*
%TD*%
D29*
%TO.C,R_D10*%
X269100000Y-49575000D03*
X267200000Y-49575000D03*
%TD*%
D40*
%TO.C,R_JP3*%
X216484200Y-70104000D03*
X217525600Y-70104000D03*
%TD*%
D29*
%TO.C,L_D16*%
X78600000Y-71006250D03*
X76700000Y-71006250D03*
%TD*%
%TO.C,L_D17*%
X59550000Y-75768750D03*
X57650000Y-75768750D03*
%TD*%
%TO.C,R_D21*%
X288150000Y-90151500D03*
X286250000Y-90151500D03*
%TD*%
%TO.C,R_D11*%
X250050000Y-52051499D03*
X248150000Y-52051499D03*
%TD*%
%TO.C,L_D12*%
X135750000Y-54337500D03*
X133850000Y-54337500D03*
%TD*%
D47*
%TO.C,L_R1*%
X161059500Y-38862000D03*
X159234500Y-38862000D03*
%TD*%
D30*
%TO.C,L_C1*%
X40193000Y-39243000D03*
X38293000Y-39243000D03*
%TD*%
D26*
%TO.C,R_TP_INT1*%
X215341200Y-32258000D03*
%TD*%
D29*
%TO.C,L_D19*%
X40500000Y-99676500D03*
X38600000Y-99676500D03*
%TD*%
D41*
%TO.C,R_BAT1*%
X324566071Y-29511991D03*
X331366071Y-29511991D03*
D42*
X326966071Y-27261991D03*
X328966071Y-27261991D03*
%TD*%
D29*
%TO.C,R_D15*%
X269100000Y-68625000D03*
X267200000Y-68625000D03*
%TD*%
D44*
%TO.C,R_D26*%
X200170443Y-127532748D03*
X198524995Y-128482748D03*
%TD*%
D29*
%TO.C,R_D9*%
X288150000Y-52051499D03*
X286250000Y-52051499D03*
%TD*%
%TO.C,L_D2*%
X116700000Y-32906250D03*
X114800000Y-32906250D03*
%TD*%
%TO.C,L_D4*%
X78600000Y-32906250D03*
X76700000Y-32906250D03*
%TD*%
%TO.C,R_D24*%
X231000000Y-92437500D03*
X229100000Y-92437500D03*
%TD*%
%TO.C,L_D8*%
X59550000Y-56718750D03*
X57650000Y-56718750D03*
%TD*%
%TO.C,L_D20*%
X59550000Y-94818750D03*
X57650000Y-94818750D03*
%TD*%
D26*
%TO.C,L_TP_RST1*%
X165760400Y-35153600D03*
%TD*%
D48*
%TO.C,R_R1*%
X213971500Y-35560000D03*
X215796500Y-35560000D03*
%TD*%
D29*
%TO.C,R_D22*%
X269100000Y-87675000D03*
X267200000Y-87675000D03*
%TD*%
%TO.C,R_D18*%
X326250000Y-80626500D03*
X324350000Y-80626500D03*
%TD*%
%TO.C,L_D9*%
X78600000Y-51956250D03*
X76700000Y-51956250D03*
%TD*%
M02*
