M48
; DRILL file {KiCad 8.0.1} date 2024-03-27T08:46:19-0400
; FORMAT={-:-/ absolute / metric / decimal}
; #@! TF.CreationDate,2024-03-27T08:46:19-04:00
; #@! TF.GenerationSoftware,Kicad,Pcbnew,8.0.1
; #@! TF.FileFunction,MixedPlating,1,2
FMAT,2
METRIC
; #@! TA.AperFunction,Plated,PTH,ViaDrill
T1C0.300
; #@! TA.AperFunction,Plated,PTH,ViaDrill
T2C0.400
; #@! TA.AperFunction,Plated,PTH,ComponentDrill
T3C0.900
; #@! TA.AperFunction,Plated,PTH,ComponentDrill
T4C1.000
; #@! TA.AperFunction,Plated,PTH,ComponentDrill
T5C1.600
; #@! TA.AperFunction,Plated,PTH,ComponentDrill
T6C2.500
; #@! TA.AperFunction,Plated,PTH,ComponentDrill
T7C3.050
; #@! TA.AperFunction,NonPlated,NPTH,ComponentDrill
T8C0.800
; #@! TA.AperFunction,NonPlated,NPTH,ComponentDrill
T9C0.900
; #@! TA.AperFunction,NonPlated,NPTH,ComponentDrill
T10C1.900
; #@! TA.AperFunction,NonPlated,NPTH,ComponentDrill
T11C5.050
%
G90
G05
T1
X208.496Y-118.072
X222.123Y-37.719
X222.123Y-38.516
X222.123Y-39.116
X222.123Y-39.751
X222.123Y-40.386
X222.13Y-37.108
X222.631Y-106.934
X226.051Y-52.705
X226.06Y-93.599
X228.6Y-52.705
X231.013Y-93.599
T2
X36.067Y-89.663
X36.068Y-46.99
X36.068Y-51.435
X36.068Y-85.09
X36.703Y-89.027
X36.738Y-46.228
X36.738Y-50.8
X36.738Y-84.328
X37.338Y-46.99
X37.338Y-85.09
X37.339Y-89.663
X37.356Y-51.454
X52.324Y-27.178
X60.071Y-22.352
X118.999Y-25.179
X120.142Y-24.879
X121.158Y-24.579
X122.676Y-24.771
X123.952Y-25.273
X125.43Y-25.827
X126.807Y-26.355
X127.95Y-26.863
X129.517Y-27.582
X130.683Y-20.02
X130.683Y-21.336
X130.957Y-28.174
X131.973Y-20.02
X132.395Y-28.768
X133.771Y-29.297
X135.148Y-29.825
X136.144Y-18.288
X137.033Y-49.149
X137.033Y-54.229
X137.16Y-30.988
X146.685Y-35.941
X147.49Y-37.168
X147.93Y-36.043
X148.149Y-37.781
X148.463Y-33.02
X149.098Y-38.135
X149.352Y-101.981
X149.352Y-106.934
X149.796Y-33.055
X150.114Y-38.135
X150.876Y-33.02
X151.119Y-38.135
X152.019Y-38.135
X152.527Y-31.912
X152.527Y-33.469
X153.681Y-31.912
X153.924Y-33.169
X156.998Y-27.66
X157.421Y-28.507
X158.476Y-32.532
X159.407Y-41.264
X159.407Y-42.164
X159.407Y-43.169
X159.407Y-44.069
X171.958Y-33.655
X171.958Y-41.656
X171.958Y-65.624
X175.844Y-72.085
X176.414Y-65.989
X177.292Y-76.657
X212.979Y-34.036
X213.741Y-33.147
X214.376Y-34.036
X215.392Y-34.036
X215.443Y-70.104
X216.51Y-22.305
X216.51Y-66.142
X217.297Y-31.75
X217.932Y-40.386
X218.532Y-41.529
X218.821Y-42.926
X220.059Y-26.543
X220.091Y-32.004
X220.218Y-27.559
X226.567Y-58.802
X226.568Y-63.5
X226.639Y-96.901
X226.639Y-101.482
X227.193Y-58.156
X227.219Y-62.797
X227.238Y-96.139
X227.238Y-100.687
X227.819Y-58.801
X227.838Y-63.5
X227.838Y-96.901
X227.838Y-101.473
X229.718Y-27.229
X230.632Y-33.528
X237.744Y-27.483
X237.744Y-34.925
X243.151Y-22.091
X246.99Y-22.119
X318.008Y-22.479
X328.93Y-31.115
T4
X84.699Y-18.378
X87.239Y-18.378
X89.779Y-18.378
X92.319Y-18.378
X94.859Y-18.378
X97.399Y-18.378
X102.479Y-18.378
X105.019Y-18.378
X107.559Y-18.378
X110.099Y-18.378
X112.639Y-18.378
X115.179Y-18.378
X117.719Y-18.378
X120.259Y-18.378
X122.799Y-18.378
X125.339Y-18.378
X155.7Y-47.244
X155.7Y-49.784
X155.7Y-52.324
X155.7Y-54.864
X155.7Y-57.404
X155.7Y-59.944
X155.7Y-62.484
X155.7Y-65.024
X155.7Y-67.564
X155.7Y-70.104
X155.7Y-72.644
X155.7Y-75.184
X163.825Y-54.508
X166.365Y-54.508
X178.562Y-47.244
X178.562Y-49.784
X178.562Y-52.324
X178.562Y-54.864
X178.562Y-57.404
X178.562Y-59.944
X178.562Y-62.484
X178.562Y-65.024
X178.562Y-67.564
X178.562Y-70.104
X178.562Y-72.644
X178.562Y-75.184
X196.347Y-47.241
X196.347Y-49.781
X196.347Y-52.321
X196.347Y-54.861
X196.347Y-57.401
X196.347Y-59.941
X196.347Y-62.481
X196.347Y-65.021
X196.347Y-67.561
X196.347Y-70.101
X196.347Y-72.641
X196.347Y-75.181
X208.534Y-54.508
X211.074Y-54.508
X219.209Y-47.241
X219.209Y-49.781
X219.209Y-52.321
X219.209Y-54.861
X219.209Y-57.401
X219.209Y-59.941
X219.209Y-62.481
X219.209Y-65.021
X219.209Y-67.561
X219.209Y-70.101
X219.209Y-72.641
X219.209Y-75.181
X249.725Y-18.379
X252.265Y-18.379
X254.805Y-18.379
X257.345Y-18.379
X259.885Y-18.379
X262.425Y-18.379
X264.965Y-18.379
X267.505Y-18.379
X270.045Y-18.379
X272.585Y-18.379
X277.665Y-18.379
X280.205Y-18.379
X282.745Y-18.379
X285.285Y-18.379
X287.825Y-18.379
X290.365Y-18.379
T5
X49.77Y-40.076
X49.77Y-59.127
X49.77Y-78.176
X49.77Y-97.227
X68.82Y-35.219
X68.82Y-54.269
X68.82Y-73.319
X68.82Y-92.369
X87.87Y-30.456
X87.87Y-49.506
X87.87Y-68.556
X87.87Y-87.606
X106.92Y-28.075
X106.92Y-47.125
X106.92Y-66.175
X106.92Y-85.225
X125.97Y-30.456
X125.97Y-49.506
X125.97Y-68.556
X125.97Y-87.606
X145.02Y-32.837
X145.02Y-51.887
X145.02Y-70.938
X145.02Y-89.987
X160.49Y-116.248
X176.988Y-125.773
X206.973Y-120.776
X223.458Y-111.251
X240.27Y-32.837
X240.27Y-51.887
X240.27Y-70.938
X240.27Y-89.987
X259.32Y-30.551
X259.32Y-49.601
X259.32Y-68.651
X259.32Y-87.701
X278.37Y-28.075
X278.37Y-47.125
X278.37Y-66.175
X278.37Y-85.225
X297.42Y-30.551
X297.42Y-49.601
X297.42Y-68.651
X297.42Y-87.701
X316.47Y-35.314
X316.47Y-54.364
X316.47Y-73.414
X316.47Y-92.464
X335.52Y-40.076
X335.52Y-59.127
X335.52Y-78.176
X335.52Y-97.227
T6
X37.963Y-114.101
X38.963Y-21.101
X144.963Y-19.351
X166.963Y-69.101
X175.963Y-114.101
X178.963Y-21.101
X196.338Y-21.104
X199.338Y-114.104
X208.338Y-69.104
X230.338Y-19.354
X336.338Y-21.104
X337.338Y-114.104
T7
X39.77Y-49.026
X39.77Y-68.076
X39.77Y-87.126
X39.77Y-106.176
X44.77Y-51.127
X44.77Y-70.176
X44.77Y-89.227
X44.77Y-108.276
X58.82Y-44.169
X58.82Y-63.219
X58.82Y-82.269
X58.82Y-101.319
X63.82Y-46.269
X63.82Y-65.319
X63.82Y-84.369
X63.82Y-103.419
X77.87Y-39.406
X77.87Y-58.456
X77.87Y-77.506
X77.87Y-96.556
X82.87Y-41.506
X82.87Y-60.556
X82.87Y-79.606
X82.87Y-98.656
X96.92Y-37.025
X96.92Y-56.075
X96.92Y-75.125
X96.92Y-94.175
X101.92Y-39.125
X101.92Y-58.175
X101.92Y-77.225
X101.92Y-96.275
X115.97Y-39.406
X115.97Y-58.456
X115.97Y-77.506
X115.97Y-96.556
X120.97Y-41.506
X120.97Y-60.556
X120.97Y-79.606
X120.97Y-98.656
X135.02Y-41.788
X135.02Y-60.837
X135.02Y-79.888
X135.02Y-98.938
X140.02Y-43.887
X140.02Y-62.938
X140.02Y-81.987
X140.02Y-101.037
X147.355Y-118.999
X150.635Y-123.318
X163.853Y-128.524
X167.133Y-132.843
X202.788Y-133.527
X208.168Y-132.846
X219.273Y-124.002
X224.653Y-123.321
X230.27Y-41.788
X230.27Y-60.837
X230.27Y-79.888
X230.27Y-98.938
X235.27Y-43.887
X235.27Y-62.938
X235.27Y-81.987
X235.27Y-101.037
X249.32Y-39.502
X249.32Y-58.551
X249.32Y-77.602
X249.32Y-96.651
X254.32Y-41.602
X254.32Y-60.651
X254.32Y-79.701
X254.32Y-98.751
X268.37Y-37.025
X268.37Y-56.075
X268.37Y-75.125
X268.37Y-94.175
X273.37Y-39.125
X273.37Y-58.175
X273.37Y-77.225
X273.37Y-96.275
X287.42Y-39.502
X287.42Y-58.551
X287.42Y-77.602
X287.42Y-96.651
X292.42Y-41.602
X292.42Y-60.651
X292.42Y-79.701
X292.42Y-98.751
X306.47Y-44.264
X306.47Y-63.314
X306.47Y-82.364
X306.47Y-101.414
X311.47Y-46.364
X311.47Y-65.414
X311.47Y-84.464
X311.47Y-103.514
X325.52Y-49.026
X325.52Y-68.076
X325.52Y-87.126
X325.52Y-106.176
X330.52Y-51.127
X330.52Y-70.176
X330.52Y-89.227
X330.52Y-108.276
T8
X169.986Y-92.16
X176.986Y-92.16
X197.947Y-92.161
X204.947Y-92.161
T9
X56.086Y-19.16
X61.086Y-19.16
X313.953Y-19.161
X318.953Y-19.161
T10
X39.27Y-45.227
X39.27Y-64.276
X39.27Y-83.326
X39.27Y-102.376
X50.27Y-45.227
X50.27Y-64.276
X50.27Y-83.326
X50.27Y-102.376
X58.32Y-40.369
X58.32Y-59.419
X58.32Y-78.469
X58.32Y-97.519
X69.32Y-40.369
X69.32Y-59.419
X69.32Y-78.469
X69.32Y-97.519
X77.37Y-35.606
X77.37Y-54.656
X77.37Y-73.706
X77.37Y-92.756
X88.37Y-35.606
X88.37Y-54.656
X88.37Y-73.706
X88.37Y-92.756
X96.42Y-33.225
X96.42Y-52.275
X96.42Y-71.325
X96.42Y-90.375
X107.42Y-33.225
X107.42Y-52.275
X107.42Y-71.325
X107.42Y-90.375
X115.47Y-35.606
X115.47Y-54.656
X115.47Y-73.706
X115.47Y-92.756
X126.47Y-35.606
X126.47Y-54.656
X126.47Y-73.706
X126.47Y-92.756
X134.52Y-37.987
X134.52Y-57.037
X134.52Y-76.087
X134.52Y-95.137
X145.52Y-37.987
X145.52Y-57.037
X145.52Y-76.087
X145.52Y-95.137
X148.822Y-115.458
X158.348Y-120.958
X165.32Y-124.983
X174.846Y-130.483
X200.455Y-130.486
X209.982Y-124.986
X216.94Y-120.961
X226.466Y-115.461
X229.77Y-37.987
X229.77Y-57.037
X229.77Y-76.087
X229.77Y-95.137
X240.77Y-37.987
X240.77Y-57.037
X240.77Y-76.087
X240.77Y-95.137
X248.82Y-35.701
X248.82Y-54.751
X248.82Y-73.801
X248.82Y-92.852
X259.82Y-35.701
X259.82Y-54.751
X259.82Y-73.801
X259.82Y-92.852
X267.87Y-33.225
X267.87Y-52.275
X267.87Y-71.325
X267.87Y-90.375
X278.87Y-33.225
X278.87Y-52.275
X278.87Y-71.325
X278.87Y-90.375
X286.92Y-35.701
X286.92Y-54.751
X286.92Y-73.801
X286.92Y-92.852
X297.92Y-35.701
X297.92Y-54.751
X297.92Y-73.801
X297.92Y-92.852
X305.97Y-40.464
X305.97Y-59.514
X305.97Y-78.564
X305.97Y-97.614
X316.97Y-40.464
X316.97Y-59.514
X316.97Y-78.564
X316.97Y-97.614
X325.02Y-45.227
X325.02Y-64.276
X325.02Y-83.326
X325.02Y-102.376
X336.02Y-45.227
X336.02Y-64.276
X336.02Y-83.326
X336.02Y-102.376
T11
X44.77Y-45.227
X44.77Y-64.276
X44.77Y-83.326
X44.77Y-102.376
X63.82Y-40.369
X63.82Y-59.419
X63.82Y-78.469
X63.82Y-97.519
X82.87Y-35.606
X82.87Y-54.656
X82.87Y-73.706
X82.87Y-92.756
X101.92Y-33.225
X101.92Y-52.275
X101.92Y-71.325
X101.92Y-90.375
X120.97Y-35.606
X120.97Y-54.656
X120.97Y-73.706
X120.97Y-92.756
X140.02Y-37.987
X140.02Y-57.037
X140.02Y-76.087
X140.02Y-95.137
X153.585Y-118.208
X170.083Y-127.733
X205.218Y-127.736
X221.703Y-118.211
X235.27Y-37.987
X235.27Y-57.037
X235.27Y-76.087
X235.27Y-95.137
X254.32Y-35.701
X254.32Y-54.751
X254.32Y-73.801
X254.32Y-92.852
X273.37Y-33.225
X273.37Y-52.275
X273.37Y-71.325
X273.37Y-90.375
X292.42Y-35.701
X292.42Y-54.751
X292.42Y-73.801
X292.42Y-92.852
X311.47Y-40.464
X311.47Y-59.514
X311.47Y-78.564
X311.47Y-97.614
X330.52Y-45.227
X330.52Y-64.276
X330.52Y-83.326
X330.52Y-102.376
T3
G00X167.486Y-89.86
M15
G01X167.086Y-89.86
M16
G05
G00X168.586Y-94.46
M15
G01X168.186Y-94.46
M16
G05
G00X172.586Y-94.46
M15
G01X172.186Y-94.46
M16
G05
G00X175.586Y-94.46
M15
G01X175.186Y-94.46
M16
G05
G00X199.347Y-89.861
M15
G01X199.747Y-89.861
M16
G05
G00X202.347Y-89.861
M15
G01X202.747Y-89.861
M16
G05
G00X206.347Y-89.861
M15
G01X206.747Y-89.861
M16
G05
G00X207.447Y-94.461
M15
G01X207.847Y-94.461
M16
G05
M30
