M48
METRIC,TZ
T1C0.300
T2C0.400
T3C0.900
T4C1.000
T5C1.600
T6C2.500
T7C3.050
%
G90
G05
T1
X208496Y-118072
X222123Y-37719
X222123Y-38516
X222123Y-39116
X222123Y-39751
X222123Y-40386
X222130Y-37108
X222631Y-106934
X226051Y-52705
X226060Y-93599
X228600Y-52705
X231013Y-93599
T2
X36067Y-89663
X36068Y-46990
X36068Y-51435
X36068Y-85090
X36703Y-89027
X36738Y-46228
X36738Y-50800
X36738Y-84328
X37338Y-46990
X37338Y-85090
X37339Y-89663
X37356Y-51454
X52324Y-27178
X60071Y-22352
X118999Y-25179
X120142Y-24879
X121158Y-24579
X122676Y-24771
X123952Y-25273
X125430Y-25827
X126807Y-26355
X127950Y-26863
X129517Y-27582
X130683Y-20020
X130683Y-21336
X130957Y-28174
X131973Y-20020
X132395Y-28768
X133771Y-29297
X135148Y-29825
X136144Y-18288
X137033Y-49149
X137033Y-54229
X137160Y-30988
X146685Y-35941
X147490Y-37168
X147930Y-36043
X148149Y-37781
X148463Y-33020
X149098Y-38135
X149352Y-101981
X149352Y-106934
X149796Y-33055
X150114Y-38135
X150876Y-33020
X151119Y-38135
X152019Y-38135
X152527Y-31912
X152527Y-33469
X153681Y-31912
X153924Y-33169
X156998Y-27660
X157421Y-28507
X158476Y-32532
X159407Y-41264
X159407Y-42164
X159407Y-43169
X159407Y-44069
X171958Y-33655
X171958Y-41656
X171958Y-65624
X175844Y-72085
X176414Y-65989
X177292Y-76657
X212979Y-34036
X213741Y-33147
X214376Y-34036
X215392Y-34036
X215443Y-70104
X216510Y-22305
X216510Y-66142
X217297Y-31750
X217932Y-40386
X218532Y-41529
X218821Y-42926
X220059Y-26543
X220091Y-32004
X220218Y-27559
X226567Y-58802
X226568Y-63500
X226639Y-96901
X226639Y-101482
X227193Y-58156
X227219Y-62797
X227239Y-96139
X227239Y-100687
X227819Y-58801
X227838Y-63500
X227838Y-96901
X227838Y-101473
X229718Y-27229
X230632Y-33528
X237744Y-27483
X237744Y-34925
X243151Y-22091
X246990Y-22119
X318008Y-22479
X328930Y-31115
T4
X84699Y-18378
X87239Y-18378
X89779Y-18378
X92319Y-18378
X94859Y-18378
X97399Y-18378
X102479Y-18378
X105019Y-18378
X107559Y-18378
X110099Y-18378
X112639Y-18378
X115179Y-18378
X117719Y-18378
X120259Y-18378
X122799Y-18378
X125339Y-18378
X155700Y-47244
X155700Y-49784
X155700Y-52324
X155700Y-54864
X155700Y-57404
X155700Y-59944
X155700Y-62484
X155700Y-65024
X155700Y-67564
X155700Y-70104
X155700Y-72644
X155700Y-75184
X163825Y-54508
X166365Y-54508
X178562Y-47244
X178562Y-49784
X178562Y-52324
X178562Y-54864
X178562Y-57404
X178562Y-59944
X178562Y-62484
X178562Y-65024
X178562Y-67564
X178562Y-70104
X178562Y-72644
X178562Y-75184
X196347Y-47241
X196347Y-49781
X196347Y-52321
X196347Y-54861
X196347Y-57401
X196347Y-59941
X196347Y-62481
X196347Y-65021
X196347Y-67561
X196347Y-70101
X196347Y-72641
X196347Y-75181
X208534Y-54508
X211074Y-54508
X219209Y-47241
X219209Y-49781
X219209Y-52321
X219209Y-54861
X219209Y-57401
X219209Y-59941
X219209Y-62481
X219209Y-65021
X219209Y-67561
X219209Y-70101
X219209Y-72641
X219209Y-75181
X249725Y-18379
X252265Y-18379
X254805Y-18379
X257345Y-18379
X259885Y-18379
X262425Y-18379
X264965Y-18379
X267505Y-18379
X270045Y-18379
X272585Y-18379
X277665Y-18379
X280205Y-18379
X282745Y-18379
X285285Y-18379
X287825Y-18379
X290365Y-18379
T5
X49770Y-40077
X49770Y-59127
X49770Y-78176
X49770Y-97227
X68820Y-35219
X68820Y-54269
X68820Y-73319
X68820Y-92369
X87870Y-30456
X87870Y-49506
X87870Y-68556
X87870Y-87606
X106920Y-28075
X106920Y-47125
X106920Y-66175
X106920Y-85225
X125970Y-30456
X125970Y-49506
X125970Y-68556
X125970Y-87606
X145020Y-32838
X145020Y-51888
X145020Y-70938
X145020Y-89988
X160490Y-116248
X176988Y-125773
X206973Y-120776
X223458Y-111251
X240270Y-32838
X240270Y-51888
X240270Y-70938
X240270Y-89988
X259320Y-30551
X259320Y-49601
X259320Y-68652
X259320Y-87702
X278370Y-28075
X278370Y-47125
X278370Y-66175
X278370Y-85225
X297420Y-30551
X297420Y-49601
X297420Y-68652
X297420Y-87702
X316470Y-35314
X316470Y-54364
X316470Y-73414
X316470Y-92464
X335520Y-40077
X335520Y-59127
X335520Y-78176
X335520Y-97227
T6
X37963Y-114101
X38963Y-21101
X144963Y-19351
X166963Y-69101
X175963Y-114101
X178963Y-21101
X196338Y-21104
X199338Y-114104
X208338Y-69104
X230338Y-19354
X336338Y-21104
X337338Y-114104
T7
X39770Y-49027
X39770Y-68077
X39770Y-87126
X39770Y-106176
X44770Y-51127
X44770Y-70176
X44770Y-89227
X44770Y-108276
X58820Y-44169
X58820Y-63219
X58820Y-82269
X58820Y-101319
X63820Y-46269
X63820Y-65319
X63820Y-84369
X63820Y-103419
X77870Y-39406
X77870Y-58456
X77870Y-77506
X77870Y-96556
X82870Y-41506
X82870Y-60556
X82870Y-79606
X82870Y-98656
X96920Y-37025
X96920Y-56075
X96920Y-75125
X96920Y-94175
X101920Y-39125
X101920Y-58175
X101920Y-77225
X101920Y-96275
X115970Y-39406
X115970Y-58456
X115970Y-77506
X115970Y-96556
X120970Y-41506
X120970Y-60556
X120970Y-79606
X120970Y-98656
X135020Y-41788
X135020Y-60838
X135020Y-79888
X135020Y-98938
X140020Y-43887
X140020Y-62938
X140020Y-81988
X140020Y-101038
X147355Y-118999
X150635Y-123318
X163853Y-128524
X167133Y-132843
X202788Y-133527
X208168Y-132846
X219273Y-124002
X224653Y-123321
X230270Y-41788
X230270Y-60838
X230270Y-79888
X230270Y-98938
X235270Y-43887
X235270Y-62938
X235270Y-81988
X235270Y-101038
X249320Y-39502
X249320Y-58551
X249320Y-77602
X249320Y-96652
X254320Y-41602
X254320Y-60651
X254320Y-79702
X254320Y-98751
X268370Y-37025
X268370Y-56075
X268370Y-75125
X268370Y-94175
X273370Y-39125
X273370Y-58175
X273370Y-77225
X273370Y-96275
X287420Y-39502
X287420Y-58551
X287420Y-77602
X287420Y-96652
X292420Y-41602
X292420Y-60651
X292420Y-79702
X292420Y-98751
X306470Y-44264
X306470Y-63314
X306470Y-82364
X306470Y-101414
X311470Y-46364
X311470Y-65414
X311470Y-84464
X311470Y-103514
X325520Y-49027
X325520Y-68077
X325520Y-87126
X325520Y-106176
X330520Y-51127
X330520Y-70176
X330520Y-89227
X330520Y-108276
T3
G00X167486Y-89860
M15
G01X167086Y-89860
M16
G05
G00X168586Y-94460
M15
G01X168186Y-94460
M16
G05
G00X172586Y-94460
M15
G01X172186Y-94460
M16
G05
G00X175586Y-94460
M15
G01X175186Y-94460
M16
G05
G00X199347Y-89861
M15
G01X199747Y-89861
M16
G05
G00X202347Y-89861
M15
G01X202747Y-89861
M16
G05
G00X206347Y-89861
M15
G01X206747Y-89861
M16
G05
G00X207447Y-94461
M15
G01X207847Y-94461
M16
G05
M30
