M48
METRIC,TZ
T1C0.800
T2C0.900
T3C1.900
T4C5.050
%
G90
G05
T1
X169986Y-92160
X176986Y-92160
X197947Y-92161
X204947Y-92161
T2
X56086Y-19160
X61086Y-19160
X313953Y-19161
X318953Y-19161
T3
X39270Y-45227
X39270Y-64277
X39270Y-83327
X39270Y-102376
X50270Y-45227
X50270Y-64277
X50270Y-83327
X50270Y-102376
X58320Y-40369
X58320Y-59419
X58320Y-78469
X58320Y-97519
X69320Y-40369
X69320Y-59419
X69320Y-78469
X69320Y-97519
X77370Y-35606
X77370Y-54656
X77370Y-73706
X77370Y-92756
X88370Y-35606
X88370Y-54656
X88370Y-73706
X88370Y-92756
X96420Y-33225
X96420Y-52275
X96420Y-71325
X96420Y-90375
X107420Y-33225
X107420Y-52275
X107420Y-71325
X107420Y-90375
X115470Y-35606
X115470Y-54656
X115470Y-73706
X115470Y-92756
X126470Y-35606
X126470Y-54656
X126470Y-73706
X126470Y-92756
X134520Y-37988
X134520Y-57038
X134520Y-76087
X134520Y-95137
X145520Y-37988
X145520Y-57038
X145520Y-76087
X145520Y-95137
X148822Y-115458
X158348Y-120958
X165320Y-124983
X174846Y-130483
X200455Y-130486
X209982Y-124986
X216940Y-120961
X226466Y-115461
X229770Y-37988
X229770Y-57038
X229770Y-76087
X229770Y-95137
X240770Y-37988
X240770Y-57038
X240770Y-76087
X240770Y-95137
X248820Y-35702
X248820Y-54751
X248820Y-73801
X248820Y-92852
X259820Y-35702
X259820Y-54751
X259820Y-73801
X259820Y-92852
X267870Y-33225
X267870Y-52275
X267870Y-71325
X267870Y-90375
X278870Y-33225
X278870Y-52275
X278870Y-71325
X278870Y-90375
X286920Y-35702
X286920Y-54751
X286920Y-73801
X286920Y-92852
X297920Y-35702
X297920Y-54751
X297920Y-73801
X297920Y-92852
X305970Y-40464
X305970Y-59514
X305970Y-78564
X305970Y-97614
X316970Y-40464
X316970Y-59514
X316970Y-78564
X316970Y-97614
X325020Y-45227
X325020Y-64277
X325020Y-83327
X325020Y-102376
X336020Y-45227
X336020Y-64277
X336020Y-83327
X336020Y-102376
T4
X44770Y-45227
X44770Y-64277
X44770Y-83327
X44770Y-102376
X63820Y-40369
X63820Y-59419
X63820Y-78469
X63820Y-97519
X82870Y-35606
X82870Y-54656
X82870Y-73706
X82870Y-92756
X101920Y-33225
X101920Y-52275
X101920Y-71325
X101920Y-90375
X120970Y-35606
X120970Y-54656
X120970Y-73706
X120970Y-92756
X140020Y-37988
X140020Y-57038
X140020Y-76087
X140020Y-95137
X153585Y-118208
X170083Y-127733
X205218Y-127736
X221703Y-118211
X235270Y-37988
X235270Y-57038
X235270Y-76087
X235270Y-95137
X254320Y-35702
X254320Y-54751
X254320Y-73801
X254320Y-92852
X273370Y-33225
X273370Y-52275
X273370Y-71325
X273370Y-90375
X292420Y-35702
X292420Y-54751
X292420Y-73801
X292420Y-92852
X311470Y-40464
X311470Y-59514
X311470Y-78564
X311470Y-97614
X330520Y-45227
X330520Y-64277
X330520Y-83327
X330520Y-102376
M30
