  0
SECTION
  2
HEADER
  9
$ANGBASE
  50
0.0
  9
$ANGDIR
  70
1
  9
$MEASUREMENT
  70
0
  0
ENDSEC
  0
SECTION
  2
TABLES
  0
TABLE
  2
LTYPE
  70
4
  0
LTYPE
  5
40F
  2
CONTINUOUS
  70
0
  3
Solid line
  72
65
  73
0
  40
0.0
  0
LTYPE
  5
410
  2
DASHDOT
 70
0
  3
Dash Dot ____ _ ____ _
 72
65
 73
4
 40
2.0
 49
1.25
 49
-0.25
 49
0.25
 49
-0.25
  0
LTYPE
  5
411
  2
DASHED
 70
0
  3
Dashed __ __ __ __ __
 72
65
 73
2
 40
0.75
 49
0.5
 49
-0.25
  0
LTYPE
  5
43B
  2
DOTTED
 70
0
  3
Dotted .  .  .  .
 72
65
 73
2
 40
0.2
 49
0.0
 49
-0.2
  0
ENDTAB
  0
TABLE
  2
STYLE
  70
4
  0
STYLE
  2
KICAD
  70
0
  40
0
  41
1
  42
1
  50
0
  71
0
  3
isocp.shx
  0
STYLE
  2
KICADB
  70
0
  40
0
  41
1
  42
1
  50
0
  71
0
  3
isocp.shx
  0
STYLE
  2
KICADI
  70
0
  40
0
  41
1
  42
1
  50
15
  71
0
  3
isocp.shx
  0
STYLE
  2
KICADBI
  70
0
  40
0
  41
1
  42
1
  50
15
  71
0
  3
isocp.shx
  0
ENDTAB
  0
TABLE
  2
LAYER
  70
1
  0
LAYER
  2
BLACK
  70
0
  62
7
  6
CONTINUOUS
  0
ENDTAB
  0
ENDSEC
  0
SECTION
  2
ENTITIES
0
LINE
8
BLACK
6
CONTINUOUS
10
12.5832139370078746
20
-4.291650275590551
11
12.5832139370078746
21
-4.5848589370078736
0
LINE
8
BLACK
6
CONTINUOUS
10
11.8726891732283466
20
-4.2522801968503936
11
12.5438438582677154
21
-4.2522801968503936
0
LINE
8
BLACK
6
CONTINUOUS
10
9.7304500787401569
20
-4.0648064566929136
11
10.4016053543307088
21
-4.0648064566929136
0
LINE
8
BLACK
6
CONTINUOUS
10
12.622584015748032
20
-4.624229015748031
11
13.4011859055118112
21
-4.624229015748031
0
LINE
8
BLACK
6
CONTINUOUS
10
9.6910799999999995
20
-4.1154236614173225
11
9.6910799999999995
21
-4.104176535433071
0
LINE
8
BLACK
6
CONTINUOUS
10
7.5362062204724412
20
-4.945470196850394
11
7.8930099212598419
21
-5.5634708661417323
0
LINE
8
BLACK
6
CONTINUOUS
10
11.1227943700787399
20
-4.0648064566929136
11
11.7939490157480318
21
-4.0648064566929136
0
LINE
8
BLACK
6
CONTINUOUS
10
7.9467964960629915
20
-5.5778777952755902
11
9.2571749212598426
21
-4.8210201574803149
0
LINE
8
BLACK
6
CONTINUOUS
10
11.8333190944881892
20
-4.104176535433071
11
11.8333190944881892
21
-4.2129101181102362
0
LINE
8
BLACK
6
CONTINUOUS
10
13.4011859055118112
20
-0.6310802755905511
11
7.5703016929133859
21
-0.6310802755905511
0
LINE
8
BLACK
6
CONTINUOUS
10
11.0834242913385825
20
-4.0066901181102361
11
11.0834242913385825
21
-4.0254363779527562
0
LINE
8
BLACK
6
CONTINUOUS
10
10.4803455118110236
20
-3.9673200393700787
11
11.0440542125984251
21
-3.9673200393700787
0
LINE
8
BLACK
6
CONTINUOUS
10
7.5309316141732285
20
-0.6704503543307087
11
7.5309316141732285
21
-4.9257851181102357
0
LINE
8
BLACK
6
CONTINUOUS
10
13.4405559842519686
20
-4.5848589370078736
11
13.4405559842519686
21
-0.6704503543307087
0
LINE
8
BLACK
6
CONTINUOUS
10
10.4409754330708662
20
-4.0254363779527562
11
10.4409754330708662
21
-4.0066901181102361
0
LINE
8
BLACK
6
CONTINUOUS
10
9.3162239763779517
20
-4.1547937401574799
11
9.6517099212598421
21
-4.1547937401574799
0
LINE
8
BLACK
6
CONTINUOUS
10
9.2768538976377943
20
-4.7869281496062994
11
9.2768538976377943
21
-4.1941638188976373
0
ARC
8
BLACK
10
12.5438425196850396
20
-4.2916496062992122
40
0.0393694094715752
50
-0.00097400
51
89.99805191
0
ARC
8
BLACK
10
12.6225826771653544
20
-4.5848582677165357
40
0.0393707480542516
50
-179.99902594
51
-89.99805198
0
ARC
8
BLACK
10
9.7304488188976368
20
-4.1041771653543302
40
0.0393688189026773
50
89.99816656
51
179.99908324
0
ARC
8
BLACK
10
7.927106299212598
20
-5.5437874015748028
40
0.0393682460198818
50
-150.00263212
51
-59.98979221
0
ARC
8
BLACK
10
11.8726889763779528
20
-4.2129094488188974
40
0.0393707480319882
50
-179.99902597
51
-89.99971353
0
ARC
8
BLACK
10
11.793948818897638
20
-4.1041771653543302
40
0.0393707086619094
50
0.00091673
51
89.99971353
0
ARC
8
BLACK
10
11.1227952755905513
20
-4.0254370078740154
40
0.0393694488293112
50
-180.00091671
51
-90.00131782
0
ARC
8
BLACK
10
11.0440551181102364
20
-4.0066889763779523
40
0.0393689370182877
50
-0.00166162
51
90.00131784
0
ARC
8
BLACK
10
7.5703031496062989
20
-4.9257834645669289
40
0.0393721729697531
50
-179.99759367
51
-149.99891482
0
ARC
8
BLACK
10
7.5703031496062989
20
-0.6704488188976377
40
0.0393715354630107
50
-269.99787997
51
-179.99776555
0
ARC
8
BLACK
10
13.4011850393700787
20
-4.5848582677165357
40
0.0393709448875786
50
-89.99873951
51
-0.00097401
0
ARC
8
BLACK
10
13.4011850393700787
20
-0.6704488188976377
40
0.0393685433166145
50
-0.00223449
51
89.99873944
0
ARC
8
BLACK
10
10.4016062992125988
20
-4.0254370078740154
40
0.0393691338633072
50
-90.00137512
51
0.00091675
0
ARC
8
BLACK
10
10.4803464566929136
20
-4.0066889763779523
40
0.039371023638602
50
-269.99862486
51
-179.99833846
0
ARC
8
BLACK
10
9.651708661417322
20
-4.1154251968503939
40
0.0393713386126172
50
-89.99816646
51
0.00223446
0
ARC
8
BLACK
10
9.2374842519685032
20
-4.7869291338582673
40
0.0393696456815946
50
-59.98965534
51
0.00143241
0
ARC
8
BLACK
10
9.316224409448818
20
-4.1941653543307087
40
0.0393705118409642
50
90.00063023
51
179.99776549
0
CIRCLE
8
BLACK
10
7.7298382677165351
20
-0.8308617322834645
40
0.0590551181102362
0
CIRCLE
8
BLACK
10
13.2416492913385824
20
-0.8308617322834645
40
0.0590551181102362
0
CIRCLE
8
BLACK
10
7.8479485039370074
20
-4.49227905511811
40
0.0590551181102362
0
CIRCLE
8
BLACK
10
13.2810193700787398
20
-4.49227905511811
40
0.0590551181102362
0
CIRCLE
8
BLACK
10
8.202279212598425
20
-2.7206255118110234
40
0.0590551181102362
  0
ENDSEC
  0
EOF
