%TF.GenerationSoftware,KiCad,Pcbnew,8.0.1*%
%TF.CreationDate,2024-03-27T10:54:20-04:00*%
%TF.ProjectId,top_plate,746f705f-706c-4617-9465-2e6b69636164,rev?*%
%TF.SameCoordinates,Original*%
%TF.FileFunction,Profile,NP*%
%FSLAX46Y46*%
G04 Gerber Fmt 4.6, Leading zero omitted, Abs format (unit mm)*
G04 Created by KiCad (PCBNEW 8.0.1) date 2024-03-27 10:54:20*
%MOMM*%
%LPD*%
G01*
G04 APERTURE LIST*
%TA.AperFunction,Profile*%
%ADD10C,0.100000*%
%TD*%
G04 APERTURE END LIST*
D10*
X79041368Y-155003695D02*
G75*
G02*
X77675186Y-154637762I-500168J865895D01*
G01*
X197806337Y-130781017D02*
X217585999Y-130781017D01*
X142962737Y-73200600D02*
X142962737Y-58000600D01*
X177212737Y-41427100D02*
X177212737Y-56627100D01*
X200112737Y-66152100D02*
X200112737Y-50952100D01*
X142393513Y-115571700D02*
X142393513Y-115095500D01*
X104862737Y-97013100D02*
X104862737Y-81813100D01*
X104862737Y-77963100D02*
X104862737Y-62763100D01*
X157711737Y-114095529D02*
G75*
G02*
X158711671Y-115095529I-37J-999971D01*
G01*
X113824837Y-118857389D02*
X113824837Y-118857361D01*
X177212737Y-113777100D02*
X162012737Y-113777100D01*
X215312737Y-123302100D02*
X200112737Y-123302100D01*
X101677501Y-121154823D02*
X109277501Y-134318409D01*
X116070337Y-29378400D02*
G75*
G02*
X117070300Y-30378400I-37J-1000000D01*
G01*
X68478400Y-121005600D02*
X68478400Y-138446156D01*
X200112737Y-70002100D02*
X215312737Y-70002100D01*
X162012737Y-94727100D02*
X162012737Y-79527100D01*
X139112737Y-98577100D02*
X139112737Y-113777100D01*
X123912737Y-75677100D02*
X123912737Y-60477100D01*
X123912737Y-79527100D02*
X139112737Y-79527100D01*
X124346169Y-116571732D02*
X124346169Y-116571684D01*
X88513915Y-128754823D02*
X101677501Y-121154823D01*
X92792901Y-143843409D02*
X79629315Y-151443409D01*
X159711737Y-116571684D02*
X176759037Y-116571684D01*
X196262737Y-61389600D02*
X181062737Y-61389600D01*
X158711714Y-115095529D02*
X158711714Y-115571684D01*
X98283237Y-106687100D02*
X85257637Y-119712700D01*
X215312737Y-85202100D02*
X200112737Y-85202100D01*
X79629315Y-151443409D02*
X72029315Y-138279823D01*
X85257637Y-119712700D02*
G75*
G02*
X84550523Y-120005616I-707137J707100D01*
G01*
X200112737Y-104252100D02*
X200112737Y-89052100D01*
X72029315Y-138279823D02*
X85192901Y-130679823D01*
X141393513Y-116571684D02*
X141393513Y-116571676D01*
X104862737Y-116063100D02*
X104862737Y-100863100D01*
X181062737Y-46189600D02*
X196262737Y-46189600D01*
X117070337Y-34017200D02*
X117070337Y-30378400D01*
X196806320Y-122333517D02*
X196806371Y-122333517D01*
X158162737Y-92250600D02*
X142962737Y-92250600D01*
X142962737Y-77050600D02*
X158162737Y-77050600D01*
X196262737Y-65239600D02*
X196262737Y-80439600D01*
X177212737Y-60477100D02*
X177212737Y-75677100D01*
X218582859Y-129781000D02*
X218582859Y-30355039D01*
X217582837Y-29355039D02*
G75*
G02*
X218582761Y-30355039I-37J-999961D01*
G01*
X181062737Y-118539600D02*
X181062737Y-103339600D01*
X181062737Y-80439600D02*
X181062737Y-65239600D01*
X158162737Y-111300600D02*
X142962737Y-111300600D01*
X200112737Y-123302100D02*
X200112737Y-108102100D01*
X139112737Y-94727100D02*
X123912737Y-94727100D01*
X98579137Y-30378400D02*
G75*
G02*
X99579137Y-29378437I999963J0D01*
G01*
X142962737Y-54150600D02*
X142962737Y-38950600D01*
X158162737Y-73200600D02*
X142962737Y-73200600D01*
X120062737Y-77963100D02*
X104862737Y-77963100D01*
X120062737Y-81813100D02*
X120062737Y-97013100D01*
X162012737Y-41427100D02*
X177212737Y-41427100D01*
X158162737Y-58000600D02*
X158162737Y-73200600D01*
X158162737Y-54150600D02*
X142962737Y-54150600D01*
X196262737Y-103339600D02*
X196262737Y-118539600D01*
X123346169Y-117857400D02*
G75*
G02*
X122357969Y-118857399I-1000069J0D01*
G01*
X123346169Y-117857400D02*
X123346169Y-117571700D01*
X169800737Y-30355000D02*
X169800737Y-34017200D01*
X124346169Y-116571684D02*
X141393513Y-116571684D01*
X162012737Y-60477100D02*
X177212737Y-60477100D01*
X113824837Y-118857361D02*
X122357969Y-118857361D01*
X123912737Y-94727100D02*
X123912737Y-79527100D01*
X104862737Y-81813100D02*
X120062737Y-81813100D01*
X177212737Y-75677100D02*
X162012737Y-75677100D01*
X162012737Y-113777100D02*
X162012737Y-98577100D01*
X104862737Y-62763100D02*
X120062737Y-62763100D01*
X123912737Y-41427100D02*
X139112737Y-41427100D01*
X112824826Y-134913600D02*
G75*
G02*
X112329884Y-135776700I-1000026J0D01*
G01*
X177212737Y-56627100D02*
X162012737Y-56627100D01*
X109277501Y-134318409D02*
X96113915Y-141918409D01*
X196806371Y-122333517D02*
X196806371Y-129790899D01*
X162012737Y-75677100D02*
X162012737Y-60477100D01*
X123912737Y-56627100D02*
X123912737Y-41427100D01*
X120062737Y-62763100D02*
X120062737Y-77963100D01*
X139112737Y-56627100D02*
X123912737Y-56627100D01*
X159711737Y-116571684D02*
G75*
G02*
X158711716Y-115571684I-37J999984D01*
G01*
X215312737Y-50952100D02*
X215312737Y-66152100D01*
X169800737Y-30355000D02*
G75*
G02*
X170791906Y-29355076I999963J0D01*
G01*
X200112737Y-85202100D02*
X200112737Y-70002100D01*
X168800737Y-35017200D02*
X118070337Y-35017200D01*
X215312737Y-104252100D02*
X200112737Y-104252100D01*
X162012737Y-98577100D02*
X177212737Y-98577100D01*
X112824826Y-134913600D02*
X112824826Y-119857400D01*
X143403832Y-114095529D02*
X157711737Y-114095529D01*
X181062737Y-103339600D02*
X196262737Y-103339600D01*
X139112737Y-60477100D02*
X139112737Y-75677100D01*
X104862737Y-43713100D02*
X120062737Y-43713100D01*
X176759037Y-116571684D02*
G75*
G02*
X177759005Y-117576390I-37J-1000016D01*
G01*
X104862737Y-100863100D02*
X120062737Y-100863100D01*
X84550523Y-120005590D02*
X84550523Y-120005600D01*
X181062737Y-61389600D02*
X181062737Y-46189600D01*
X162012737Y-56627100D02*
X162012737Y-41427100D01*
X79041368Y-155003696D02*
X112329875Y-135776684D01*
X120062737Y-100863100D02*
X120062737Y-116063100D01*
X120062737Y-43713100D02*
X120062737Y-58913100D01*
X200112737Y-108102100D02*
X215312737Y-108102100D01*
X196262737Y-80439600D02*
X181062737Y-80439600D01*
X142393513Y-115095500D02*
G75*
G02*
X143403832Y-114095566I999987J0D01*
G01*
X77675189Y-154637760D02*
X77675229Y-154637737D01*
X197806337Y-130781017D02*
G75*
G02*
X196806332Y-129790899I-37J1000017D01*
G01*
X215312737Y-89052100D02*
X215312737Y-104252100D01*
X162012737Y-79527100D02*
X177212737Y-79527100D01*
X139112737Y-75677100D02*
X123912737Y-75677100D01*
X158711714Y-115571684D02*
X158711753Y-115571684D01*
X123346169Y-117571700D02*
G75*
G02*
X124346169Y-116571769I999931J0D01*
G01*
X142962737Y-38950600D02*
X158162737Y-38950600D01*
X158162737Y-38950600D02*
X158162737Y-54150600D01*
X139112737Y-41427100D02*
X139112737Y-56627100D01*
X84550523Y-120005600D02*
X69469835Y-120005600D01*
X68612366Y-138940527D02*
X77675189Y-154637760D01*
X104862737Y-58913100D02*
X104862737Y-43713100D01*
X142962737Y-58000600D02*
X158162737Y-58000600D01*
X181062737Y-65239600D02*
X196262737Y-65239600D01*
X158162737Y-77050600D02*
X158162737Y-92250600D01*
X177212737Y-79527100D02*
X177212737Y-94727100D01*
X142393513Y-115571700D02*
G75*
G02*
X141393513Y-116571713I-1000013J0D01*
G01*
X68478400Y-121005600D02*
G75*
G02*
X69469835Y-120005637I1000000J0D01*
G01*
X177759042Y-117576390D02*
X177759042Y-120339824D01*
X218582859Y-129781000D02*
G75*
G02*
X217585999Y-130781054I-1000059J0D01*
G01*
X142962737Y-111300600D02*
X142962737Y-96100600D01*
X196262737Y-84289600D02*
X196262737Y-99489600D01*
X139112737Y-113777100D02*
X123912737Y-113777100D01*
X85192901Y-130679823D02*
X92792901Y-143843409D01*
X218582859Y-30355039D02*
X218582798Y-30355039D01*
X196262737Y-46189600D02*
X196262737Y-61389600D01*
X200112737Y-89052100D02*
X215312737Y-89052100D01*
X177212737Y-94727100D02*
X162012737Y-94727100D01*
X178759037Y-121333517D02*
G75*
G02*
X177759003Y-120339824I-37J1000017D01*
G01*
X195806337Y-121333517D02*
G75*
G02*
X196806283Y-122333517I-37J-999983D01*
G01*
X96113915Y-141918409D02*
X88513915Y-128754823D01*
X217582837Y-29355039D02*
X170791906Y-29355039D01*
X120062737Y-116063100D02*
X104862737Y-116063100D01*
X177212737Y-98577100D02*
X177212737Y-113777100D01*
X215312737Y-70002100D02*
X215312737Y-85202100D01*
X181062737Y-99489600D02*
X181062737Y-84289600D01*
X200112737Y-50952100D02*
X215312737Y-50952100D01*
X120062737Y-58913100D02*
X104862737Y-58913100D01*
X98579137Y-105977000D02*
G75*
G02*
X98283245Y-106687108I-1000037J0D01*
G01*
X142962737Y-92250600D02*
X142962737Y-77050600D01*
X169800737Y-34017200D02*
G75*
G02*
X168800737Y-35017237I-1000037J0D01*
G01*
X123912737Y-113777100D02*
X123912737Y-98577100D01*
X123912737Y-98577100D02*
X139112737Y-98577100D01*
X178759037Y-121333517D02*
X195806337Y-121333517D01*
X215312737Y-66152100D02*
X200112737Y-66152100D01*
X120062737Y-97013100D02*
X104862737Y-97013100D01*
X142962737Y-96100600D02*
X158162737Y-96100600D01*
X158711708Y-115095529D02*
X158711714Y-115095529D01*
X139112737Y-79527100D02*
X139112737Y-94727100D01*
X196262737Y-99489600D02*
X181062737Y-99489600D01*
X116070337Y-29378400D02*
X99579137Y-29378400D01*
X215312737Y-108102100D02*
X215312737Y-123302100D01*
X112824826Y-119857400D02*
G75*
G02*
X113824837Y-118857426I999974J0D01*
G01*
X123912737Y-60477100D02*
X139112737Y-60477100D01*
X196262737Y-118539600D02*
X181062737Y-118539600D01*
X68612367Y-138940527D02*
G75*
G02*
X68478396Y-138446156I866033J500027D01*
G01*
X158162737Y-96100600D02*
X158162737Y-111300600D01*
X118070337Y-35017200D02*
G75*
G02*
X117070300Y-34017200I-37J1000000D01*
G01*
X181062737Y-84289600D02*
X196262737Y-84289600D01*
X98579137Y-30378400D02*
X98579137Y-105977000D01*
M02*
