%TF.GenerationSoftware,KiCad,Pcbnew,8.0.1*%
%TF.CreationDate,2024-03-27T10:43:22-04:00*%
%TF.ProjectId,base_plate,62617365-5f70-46c6-9174-652e6b696361,rev?*%
%TF.SameCoordinates,Original*%
%TF.FileFunction,Copper,L2,Bot*%
%TF.FilePolarity,Positive*%
%FSLAX46Y46*%
G04 Gerber Fmt 4.6, Leading zero omitted, Abs format (unit mm)*
G04 Created by KiCad (PCBNEW 8.0.1) date 2024-03-27 10:43:22*
%MOMM*%
%LPD*%
G01*
G04 APERTURE LIST*
%TA.AperFunction,ComponentPad*%
%ADD10C,2.900000*%
%TD*%
%TA.AperFunction,ConnectorPad*%
%ADD11C,5.000000*%
%TD*%
%ADD12C,0.350000*%
G04 APERTURE END LIST*
D10*
%TO.P,REF\u002A\u002A,1*%
%TO.N,N/C*%
X85175029Y-84688088D03*
D11*
X85175029Y-84688088D03*
%TD*%
D10*
%TO.P,REF\u002A\u002A,1*%
%TO.N,N/C*%
X73175029Y-36688088D03*
D11*
X73175029Y-36688088D03*
%TD*%
D10*
%TO.P,REF\u002A\u002A,1*%
%TO.N,N/C*%
X213175029Y-36688088D03*
D11*
X213175029Y-36688088D03*
%TD*%
D10*
%TO.P,REF\u002A\u002A,1*%
%TO.N,N/C*%
X214175029Y-129688088D03*
D11*
X214175029Y-129688088D03*
%TD*%
D10*
%TO.P,REF\u002A\u002A,1*%
%TO.N,N/C*%
X76175029Y-129688088D03*
D11*
X76175029Y-129688088D03*
%TD*%
%TA.AperFunction,NonConductor*%
G36*
X217234138Y-32114919D02*
G01*
X217324479Y-32125101D01*
X217351545Y-32131280D01*
X217430739Y-32158994D01*
X217455752Y-32171041D01*
X217526794Y-32215683D01*
X217548498Y-32232992D01*
X217607831Y-32292330D01*
X217625139Y-32314036D01*
X217669774Y-32385079D01*
X217681820Y-32410095D01*
X217709528Y-32489288D01*
X217715706Y-32516360D01*
X217725918Y-32607027D01*
X217726697Y-32620910D01*
X217726695Y-32687174D01*
X217726759Y-32688147D01*
X217726759Y-132032646D01*
X217725982Y-132046502D01*
X217715841Y-132136688D01*
X217709688Y-132163706D01*
X217682082Y-132242774D01*
X217670081Y-132267752D01*
X217625602Y-132338720D01*
X217608354Y-132360409D01*
X217549227Y-132419725D01*
X217527594Y-132437042D01*
X217456766Y-132481750D01*
X217431828Y-132493829D01*
X217376445Y-132513364D01*
X217352848Y-132521688D01*
X217325851Y-132527927D01*
X217236232Y-132538295D01*
X217221982Y-132539117D01*
X215706979Y-132539117D01*
X215639940Y-132519432D01*
X215594185Y-132466628D01*
X215584241Y-132397470D01*
X215613266Y-132333914D01*
X215651328Y-132304307D01*
X215659427Y-132300239D01*
X215677822Y-132291001D01*
X215969840Y-132098937D01*
X216237587Y-131874271D01*
X216477441Y-131620041D01*
X216686159Y-131339684D01*
X216860918Y-131036992D01*
X216999355Y-130716059D01*
X217099598Y-130381224D01*
X217160291Y-130037015D01*
X217180614Y-129688088D01*
X217160291Y-129339161D01*
X217160289Y-129339149D01*
X217099600Y-128994960D01*
X217099598Y-128994953D01*
X216999354Y-128660115D01*
X216860921Y-128339192D01*
X216860918Y-128339184D01*
X216686159Y-128036492D01*
X216686158Y-128036490D01*
X216477444Y-127756138D01*
X216477439Y-127756132D01*
X216361462Y-127633205D01*
X216237587Y-127501905D01*
X216089517Y-127377660D01*
X215969842Y-127277240D01*
X215969834Y-127277234D01*
X215677825Y-127085176D01*
X215365487Y-126928314D01*
X215365481Y-126928311D01*
X215037041Y-126808769D01*
X215037038Y-126808768D01*
X214696944Y-126728165D01*
X214653548Y-126723092D01*
X214349788Y-126687588D01*
X214000270Y-126687588D01*
X213696509Y-126723092D01*
X213653114Y-126728165D01*
X213653112Y-126728165D01*
X213313019Y-126808768D01*
X213313016Y-126808769D01*
X212984576Y-126928311D01*
X212984570Y-126928314D01*
X212672232Y-127085176D01*
X212380223Y-127277234D01*
X212380215Y-127277240D01*
X212112471Y-127501905D01*
X212112469Y-127501907D01*
X211872618Y-127756132D01*
X211872613Y-127756138D01*
X211663899Y-128036490D01*
X211489142Y-128339179D01*
X211489136Y-128339192D01*
X211350703Y-128660115D01*
X211250459Y-128994953D01*
X211250457Y-128994960D01*
X211189768Y-129339149D01*
X211189767Y-129339160D01*
X211169444Y-129688084D01*
X211169444Y-129688091D01*
X211189767Y-130037015D01*
X211189768Y-130037026D01*
X211250457Y-130381215D01*
X211250459Y-130381222D01*
X211350703Y-130716060D01*
X211489136Y-131036983D01*
X211489142Y-131036996D01*
X211663899Y-131339685D01*
X211872613Y-131620037D01*
X211872618Y-131620043D01*
X211996492Y-131751341D01*
X212112471Y-131874271D01*
X212248682Y-131988565D01*
X212380215Y-132098935D01*
X212380223Y-132098941D01*
X212672232Y-132290999D01*
X212698730Y-132304307D01*
X212749804Y-132351985D01*
X212766994Y-132419707D01*
X212744841Y-132485972D01*
X212690380Y-132529741D01*
X212643079Y-132539117D01*
X197524895Y-132539117D01*
X197524850Y-132539114D01*
X197516611Y-132539114D01*
X197501064Y-132539114D01*
X197457641Y-132539116D01*
X197443844Y-132538347D01*
X197354043Y-132528296D01*
X197327133Y-132522194D01*
X197248368Y-132494823D01*
X197223473Y-132482922D01*
X197152706Y-132438807D01*
X197131060Y-132421695D01*
X197071799Y-132363020D01*
X197054474Y-132341547D01*
X197009655Y-132271217D01*
X196997509Y-132246445D01*
X196996192Y-132242774D01*
X196969354Y-132167948D01*
X196962987Y-132141110D01*
X196952182Y-132052538D01*
X196951271Y-132037536D01*
X196951271Y-124518742D01*
X196951184Y-124517419D01*
X196951185Y-124484810D01*
X196920644Y-124272364D01*
X196860180Y-124066426D01*
X196860178Y-124066421D01*
X196771029Y-123871201D01*
X196771025Y-123871195D01*
X196771023Y-123871189D01*
X196724467Y-123798742D01*
X196654995Y-123690634D01*
X196654992Y-123690630D01*
X196654990Y-123690627D01*
X196514441Y-123528417D01*
X196399515Y-123428827D01*
X196352242Y-123387862D01*
X196352241Y-123387861D01*
X196171685Y-123271818D01*
X196171680Y-123271815D01*
X195976453Y-123182650D01*
X195770520Y-123122174D01*
X195770507Y-123122171D01*
X195558078Y-123091621D01*
X195558069Y-123091620D01*
X195523428Y-123091619D01*
X195523388Y-123091617D01*
X195516629Y-123091617D01*
X195450757Y-123091617D01*
X195450748Y-123091616D01*
X195384863Y-123091614D01*
X195384861Y-123091614D01*
X195376623Y-123091614D01*
X195376579Y-123091617D01*
X178477595Y-123091617D01*
X178477550Y-123091614D01*
X178469311Y-123091614D01*
X178453757Y-123091614D01*
X178410351Y-123091616D01*
X178396524Y-123090843D01*
X178306531Y-123080748D01*
X178279562Y-123074619D01*
X178200635Y-123047124D01*
X178175693Y-123035169D01*
X178104821Y-122990861D01*
X178083154Y-122973678D01*
X178023866Y-122914767D01*
X178006543Y-122893206D01*
X177961787Y-122822617D01*
X177949675Y-122797755D01*
X177921679Y-122719007D01*
X177915378Y-122692077D01*
X177904805Y-122602947D01*
X177903942Y-122588340D01*
X177903942Y-119828087D01*
X177903943Y-119827530D01*
X177904382Y-119729701D01*
X177904381Y-119729696D01*
X177874990Y-119518898D01*
X177874655Y-119516491D01*
X177814800Y-119309707D01*
X177726043Y-119113583D01*
X177610201Y-118932136D01*
X177607320Y-118928794D01*
X177469647Y-118769083D01*
X177426824Y-118731815D01*
X177307258Y-118627758D01*
X177126360Y-118511060D01*
X177126359Y-118511059D01*
X177126352Y-118511055D01*
X176930656Y-118421376D01*
X176786665Y-118378958D01*
X176724159Y-118360545D01*
X176724157Y-118360544D01*
X176724155Y-118360544D01*
X176511090Y-118329810D01*
X176477399Y-118329802D01*
X176477118Y-118329784D01*
X176469329Y-118329784D01*
X176403457Y-118329784D01*
X176403448Y-118329783D01*
X176337563Y-118329781D01*
X176337561Y-118329781D01*
X176329323Y-118329781D01*
X176329279Y-118329784D01*
X159430295Y-118329784D01*
X159430250Y-118329781D01*
X159422011Y-118329781D01*
X159406436Y-118329781D01*
X159363083Y-118329783D01*
X159349200Y-118329004D01*
X159258854Y-118318828D01*
X159231781Y-118312649D01*
X159152574Y-118284935D01*
X159127560Y-118272890D01*
X159056513Y-118228250D01*
X159034804Y-118210939D01*
X158975467Y-118151603D01*
X158958155Y-118129894D01*
X158913511Y-118058845D01*
X158901467Y-118033836D01*
X158873750Y-117954623D01*
X158867574Y-117927565D01*
X158857432Y-117837534D01*
X158856653Y-117823651D01*
X158856653Y-117823338D01*
X158856654Y-117764400D01*
X158856653Y-117764396D01*
X158856653Y-117764392D01*
X158856653Y-117756589D01*
X158856614Y-117755991D01*
X158856614Y-117280277D01*
X158856572Y-117279653D01*
X158856574Y-117246828D01*
X158856573Y-117246821D01*
X158856573Y-117246817D01*
X158826036Y-117034380D01*
X158765575Y-116828449D01*
X158765572Y-116828441D01*
X158676416Y-116633199D01*
X158676414Y-116633197D01*
X158560385Y-116452642D01*
X158560384Y-116452641D01*
X158419837Y-116290430D01*
X158257639Y-116149875D01*
X158257631Y-116149869D01*
X158077089Y-116033833D01*
X158077081Y-116033828D01*
X157960967Y-115980796D01*
X157881850Y-115944661D01*
X157881847Y-115944660D01*
X157675921Y-115884187D01*
X157675908Y-115884184D01*
X157463476Y-115853633D01*
X157463469Y-115853632D01*
X157428828Y-115853631D01*
X157428788Y-115853629D01*
X157422029Y-115853629D01*
X157356157Y-115853629D01*
X157356148Y-115853628D01*
X157290263Y-115853626D01*
X157290261Y-115853626D01*
X157282023Y-115853626D01*
X157281979Y-115853629D01*
X143047534Y-115853629D01*
X143046310Y-115853623D01*
X142945387Y-115852626D01*
X142731261Y-115881364D01*
X142523459Y-115940477D01*
X142326284Y-116028739D01*
X142326274Y-116028744D01*
X142143765Y-116144346D01*
X141979695Y-116284901D01*
X141979692Y-116284905D01*
X141837451Y-116447512D01*
X141719968Y-116628817D01*
X141629666Y-116825086D01*
X141568410Y-117032261D01*
X141568408Y-117032272D01*
X141537463Y-117246072D01*
X141537462Y-117246078D01*
X141537446Y-117280084D01*
X141537413Y-117280611D01*
X141537413Y-117823338D01*
X141536633Y-117837223D01*
X141526453Y-117927566D01*
X141520275Y-117954635D01*
X141492559Y-118033844D01*
X141480511Y-118058861D01*
X141435871Y-118129906D01*
X141418559Y-118151616D01*
X141359221Y-118210955D01*
X141337512Y-118228267D01*
X141266465Y-118272910D01*
X141241447Y-118284958D01*
X141162244Y-118312673D01*
X141135174Y-118318852D01*
X141045156Y-118328996D01*
X141031271Y-118329776D01*
X140962071Y-118329776D01*
X140961972Y-118329784D01*
X123917253Y-118329784D01*
X123916023Y-118329863D01*
X123883287Y-118329862D01*
X123883281Y-118329862D01*
X123670829Y-118360394D01*
X123670828Y-118360394D01*
X123464891Y-118420850D01*
X123269645Y-118510005D01*
X123269635Y-118510010D01*
X123089081Y-118626034D01*
X123089075Y-118626039D01*
X122926859Y-118766589D01*
X122786303Y-118928789D01*
X122670253Y-119109357D01*
X122614089Y-119232335D01*
X122581089Y-119304592D01*
X122520616Y-119510532D01*
X122490339Y-119721108D01*
X122490069Y-119722984D01*
X122490069Y-120109089D01*
X122489301Y-120122868D01*
X122479272Y-120212560D01*
X122473185Y-120239438D01*
X122445875Y-120318127D01*
X122434003Y-120342996D01*
X122389985Y-120413714D01*
X122372912Y-120435347D01*
X122314363Y-120494595D01*
X122292933Y-120511924D01*
X122222745Y-120556776D01*
X122198021Y-120568942D01*
X122119660Y-120597186D01*
X122092855Y-120603591D01*
X122004607Y-120614521D01*
X121989368Y-120615461D01*
X113395784Y-120615461D01*
X113394830Y-120615522D01*
X113361925Y-120615522D01*
X113149481Y-120646061D01*
X112943547Y-120706521D01*
X112943544Y-120706522D01*
X112748301Y-120795680D01*
X112748293Y-120795685D01*
X112567729Y-120911719D01*
X112567724Y-120911722D01*
X112405516Y-121052272D01*
X112264954Y-121214483D01*
X112148909Y-121395048D01*
X112059744Y-121590285D01*
X111999274Y-121796223D01*
X111999273Y-121796228D01*
X111999273Y-121796229D01*
X111969277Y-122004854D01*
X111968726Y-122008683D01*
X111968726Y-137165741D01*
X111968054Y-137178630D01*
X111959279Y-137262593D01*
X111953949Y-137287815D01*
X111929998Y-137361971D01*
X111919569Y-137385544D01*
X111880803Y-137453147D01*
X111865723Y-137474057D01*
X111813818Y-137532181D01*
X111794741Y-137549520D01*
X111727179Y-137599152D01*
X111715786Y-137606595D01*
X78496936Y-156793374D01*
X78496880Y-156793404D01*
X78441465Y-156825414D01*
X78429051Y-156831684D01*
X78345713Y-156868063D01*
X78319178Y-156876253D01*
X78236725Y-156891868D01*
X78209030Y-156893948D01*
X78125173Y-156890820D01*
X78097713Y-156886684D01*
X78016656Y-156864973D01*
X77990803Y-156854829D01*
X77916606Y-156815620D01*
X77893660Y-156799977D01*
X77830050Y-156745238D01*
X77811168Y-156724888D01*
X77757500Y-156652169D01*
X77749776Y-156640349D01*
X77717328Y-156583918D01*
X77715847Y-156581701D01*
X68728221Y-141014713D01*
X68728216Y-141014700D01*
X68718378Y-140997661D01*
X68692887Y-140953512D01*
X68687947Y-140944031D01*
X68658273Y-140880554D01*
X68650922Y-140860476D01*
X68634005Y-140798050D01*
X68630214Y-140777014D01*
X68623824Y-140707734D01*
X68623300Y-140696345D01*
X68623300Y-129688091D01*
X73169444Y-129688091D01*
X73189767Y-130037015D01*
X73189768Y-130037026D01*
X73250457Y-130381215D01*
X73250459Y-130381222D01*
X73350703Y-130716060D01*
X73489136Y-131036983D01*
X73489142Y-131036996D01*
X73663899Y-131339685D01*
X73872613Y-131620037D01*
X73872618Y-131620043D01*
X73996492Y-131751341D01*
X74112471Y-131874271D01*
X74248682Y-131988565D01*
X74380215Y-132098935D01*
X74380223Y-132098941D01*
X74672232Y-132290999D01*
X74672236Y-132291001D01*
X74984578Y-132447865D01*
X75313018Y-132567407D01*
X75653115Y-132648011D01*
X76000270Y-132688588D01*
X76000277Y-132688588D01*
X76349781Y-132688588D01*
X76349788Y-132688588D01*
X76696943Y-132648011D01*
X77037040Y-132567407D01*
X77365480Y-132447865D01*
X77677822Y-132291001D01*
X77969840Y-132098937D01*
X78237587Y-131874271D01*
X78477441Y-131620041D01*
X78686159Y-131339684D01*
X78860918Y-131036992D01*
X78999355Y-130716059D01*
X79099598Y-130381224D01*
X79160291Y-130037015D01*
X79180614Y-129688088D01*
X79160291Y-129339161D01*
X79160289Y-129339149D01*
X79099600Y-128994960D01*
X79099598Y-128994953D01*
X78999354Y-128660115D01*
X78860921Y-128339192D01*
X78860918Y-128339184D01*
X78686159Y-128036492D01*
X78686158Y-128036490D01*
X78477444Y-127756138D01*
X78477439Y-127756132D01*
X78361462Y-127633205D01*
X78237587Y-127501905D01*
X78089517Y-127377660D01*
X77969842Y-127277240D01*
X77969834Y-127277234D01*
X77677825Y-127085176D01*
X77365487Y-126928314D01*
X77365481Y-126928311D01*
X77037041Y-126808769D01*
X77037038Y-126808768D01*
X76696944Y-126728165D01*
X76653548Y-126723092D01*
X76349788Y-126687588D01*
X76000270Y-126687588D01*
X75696509Y-126723092D01*
X75653114Y-126728165D01*
X75653112Y-126728165D01*
X75313019Y-126808768D01*
X75313016Y-126808769D01*
X74984576Y-126928311D01*
X74984570Y-126928314D01*
X74672232Y-127085176D01*
X74380223Y-127277234D01*
X74380215Y-127277240D01*
X74112471Y-127501905D01*
X74112469Y-127501907D01*
X73872618Y-127756132D01*
X73872613Y-127756138D01*
X73663899Y-128036490D01*
X73489142Y-128339179D01*
X73489136Y-128339192D01*
X73350703Y-128660115D01*
X73250459Y-128994953D01*
X73250457Y-128994960D01*
X73189768Y-129339149D01*
X73189767Y-129339160D01*
X73169444Y-129688084D01*
X73169444Y-129688091D01*
X68623300Y-129688091D01*
X68623300Y-84688091D01*
X82169444Y-84688091D01*
X82189767Y-85037015D01*
X82189768Y-85037026D01*
X82250457Y-85381215D01*
X82250459Y-85381222D01*
X82350703Y-85716060D01*
X82489136Y-86036983D01*
X82489142Y-86036996D01*
X82663899Y-86339685D01*
X82872613Y-86620037D01*
X82872618Y-86620043D01*
X82996492Y-86751341D01*
X83112471Y-86874271D01*
X83288932Y-87022339D01*
X83380215Y-87098935D01*
X83380223Y-87098941D01*
X83672232Y-87290999D01*
X83672236Y-87291001D01*
X83984578Y-87447865D01*
X84313018Y-87567407D01*
X84653115Y-87648011D01*
X85000270Y-87688588D01*
X85000277Y-87688588D01*
X85349781Y-87688588D01*
X85349788Y-87688588D01*
X85696943Y-87648011D01*
X86037040Y-87567407D01*
X86365480Y-87447865D01*
X86677822Y-87291001D01*
X86969840Y-87098937D01*
X87237587Y-86874271D01*
X87477441Y-86620041D01*
X87686159Y-86339684D01*
X87860918Y-86036992D01*
X87999355Y-85716059D01*
X88099598Y-85381224D01*
X88160291Y-85037015D01*
X88180614Y-84688088D01*
X88160291Y-84339161D01*
X88160289Y-84339149D01*
X88099600Y-83994960D01*
X88099598Y-83994953D01*
X87999354Y-83660115D01*
X87860921Y-83339192D01*
X87860918Y-83339184D01*
X87686159Y-83036492D01*
X87686158Y-83036490D01*
X87477444Y-82756138D01*
X87477439Y-82756132D01*
X87361462Y-82633205D01*
X87237587Y-82501905D01*
X87089517Y-82377660D01*
X86969842Y-82277240D01*
X86969834Y-82277234D01*
X86677825Y-82085176D01*
X86365487Y-81928314D01*
X86365481Y-81928311D01*
X86037041Y-81808769D01*
X86037038Y-81808768D01*
X85696944Y-81728165D01*
X85653548Y-81723092D01*
X85349788Y-81687588D01*
X85000270Y-81687588D01*
X84696509Y-81723092D01*
X84653114Y-81728165D01*
X84653112Y-81728165D01*
X84313019Y-81808768D01*
X84313016Y-81808769D01*
X83984576Y-81928311D01*
X83984570Y-81928314D01*
X83672232Y-82085176D01*
X83380223Y-82277234D01*
X83380215Y-82277240D01*
X83112471Y-82501905D01*
X83112469Y-82501907D01*
X82872618Y-82756132D01*
X82872613Y-82756138D01*
X82663899Y-83036490D01*
X82489142Y-83339179D01*
X82489136Y-83339192D01*
X82350703Y-83660115D01*
X82250459Y-83994953D01*
X82250457Y-83994960D01*
X82189768Y-84339149D01*
X82189767Y-84339160D01*
X82169444Y-84688084D01*
X82169444Y-84688091D01*
X68623300Y-84688091D01*
X68623300Y-36688091D01*
X70169444Y-36688091D01*
X70189767Y-37037015D01*
X70189768Y-37037026D01*
X70250457Y-37381215D01*
X70250459Y-37381222D01*
X70350703Y-37716060D01*
X70489136Y-38036983D01*
X70489142Y-38036996D01*
X70663899Y-38339685D01*
X70872613Y-38620037D01*
X70872618Y-38620043D01*
X70996492Y-38751341D01*
X71112471Y-38874271D01*
X71288932Y-39022339D01*
X71380215Y-39098935D01*
X71380223Y-39098941D01*
X71672232Y-39290999D01*
X71672236Y-39291001D01*
X71984578Y-39447865D01*
X72313018Y-39567407D01*
X72653115Y-39648011D01*
X73000270Y-39688588D01*
X73000277Y-39688588D01*
X73349781Y-39688588D01*
X73349788Y-39688588D01*
X73696943Y-39648011D01*
X74037040Y-39567407D01*
X74365480Y-39447865D01*
X74677822Y-39291001D01*
X74969840Y-39098937D01*
X75237587Y-38874271D01*
X75477441Y-38620041D01*
X75686159Y-38339684D01*
X75860918Y-38036992D01*
X75999355Y-37716059D01*
X76099598Y-37381224D01*
X76160291Y-37037015D01*
X76180614Y-36688091D01*
X210169444Y-36688091D01*
X210189767Y-37037015D01*
X210189768Y-37037026D01*
X210250457Y-37381215D01*
X210250459Y-37381222D01*
X210350703Y-37716060D01*
X210489136Y-38036983D01*
X210489142Y-38036996D01*
X210663899Y-38339685D01*
X210872613Y-38620037D01*
X210872618Y-38620043D01*
X210996492Y-38751341D01*
X211112471Y-38874271D01*
X211288932Y-39022339D01*
X211380215Y-39098935D01*
X211380223Y-39098941D01*
X211672232Y-39290999D01*
X211672236Y-39291001D01*
X211984578Y-39447865D01*
X212313018Y-39567407D01*
X212653115Y-39648011D01*
X213000270Y-39688588D01*
X213000277Y-39688588D01*
X213349781Y-39688588D01*
X213349788Y-39688588D01*
X213696943Y-39648011D01*
X214037040Y-39567407D01*
X214365480Y-39447865D01*
X214677822Y-39291001D01*
X214969840Y-39098937D01*
X215237587Y-38874271D01*
X215477441Y-38620041D01*
X215686159Y-38339684D01*
X215860918Y-38036992D01*
X215999355Y-37716059D01*
X216099598Y-37381224D01*
X216160291Y-37037015D01*
X216180614Y-36688088D01*
X216160291Y-36339161D01*
X216160289Y-36339149D01*
X216099600Y-35994960D01*
X216099598Y-35994953D01*
X215999354Y-35660115D01*
X215860921Y-35339192D01*
X215860918Y-35339184D01*
X215686159Y-35036492D01*
X215686158Y-35036490D01*
X215477444Y-34756138D01*
X215477439Y-34756132D01*
X215361462Y-34633205D01*
X215237587Y-34501905D01*
X215089517Y-34377660D01*
X214969842Y-34277240D01*
X214969834Y-34277234D01*
X214677825Y-34085176D01*
X214365487Y-33928314D01*
X214365481Y-33928311D01*
X214037041Y-33808769D01*
X214037038Y-33808768D01*
X213696944Y-33728165D01*
X213653548Y-33723092D01*
X213349788Y-33687588D01*
X213000270Y-33687588D01*
X212696509Y-33723092D01*
X212653114Y-33728165D01*
X212653112Y-33728165D01*
X212313019Y-33808768D01*
X212313016Y-33808769D01*
X211984576Y-33928311D01*
X211984570Y-33928314D01*
X211672232Y-34085176D01*
X211380223Y-34277234D01*
X211380215Y-34277240D01*
X211112471Y-34501905D01*
X211112469Y-34501907D01*
X210872618Y-34756132D01*
X210872613Y-34756138D01*
X210663899Y-35036490D01*
X210489142Y-35339179D01*
X210489136Y-35339192D01*
X210350703Y-35660115D01*
X210250459Y-35994953D01*
X210250457Y-35994960D01*
X210189768Y-36339149D01*
X210189767Y-36339160D01*
X210169444Y-36688084D01*
X210169444Y-36688091D01*
X76180614Y-36688091D01*
X76180614Y-36688088D01*
X76160291Y-36339161D01*
X76160289Y-36339149D01*
X76099600Y-35994960D01*
X76099598Y-35994953D01*
X75999354Y-35660115D01*
X75860921Y-35339192D01*
X75860918Y-35339184D01*
X75686159Y-35036492D01*
X75686158Y-35036490D01*
X75477444Y-34756138D01*
X75477439Y-34756132D01*
X75361462Y-34633205D01*
X75237587Y-34501905D01*
X75089517Y-34377660D01*
X74969842Y-34277240D01*
X74969834Y-34277234D01*
X74677825Y-34085176D01*
X74365487Y-33928314D01*
X74365481Y-33928311D01*
X74037041Y-33808769D01*
X74037038Y-33808768D01*
X73696944Y-33728165D01*
X73653548Y-33723092D01*
X73349788Y-33687588D01*
X73000270Y-33687588D01*
X72696509Y-33723092D01*
X72653114Y-33728165D01*
X72653112Y-33728165D01*
X72313019Y-33808768D01*
X72313016Y-33808769D01*
X71984576Y-33928311D01*
X71984570Y-33928314D01*
X71672232Y-34085176D01*
X71380223Y-34277234D01*
X71380215Y-34277240D01*
X71112471Y-34501905D01*
X71112469Y-34501907D01*
X70872618Y-34756132D01*
X70872613Y-34756138D01*
X70663899Y-35036490D01*
X70489142Y-35339179D01*
X70489136Y-35339192D01*
X70350703Y-35660115D01*
X70250459Y-35994953D01*
X70250457Y-35994960D01*
X70189768Y-36339149D01*
X70189767Y-36339160D01*
X70169444Y-36688084D01*
X70169444Y-36688091D01*
X68623300Y-36688091D01*
X68623300Y-32620513D01*
X68624067Y-32606739D01*
X68634088Y-32517086D01*
X68640171Y-32490217D01*
X68640493Y-32489288D01*
X68667463Y-32411552D01*
X68679319Y-32386708D01*
X68723311Y-32316002D01*
X68740363Y-32294386D01*
X68798877Y-32235144D01*
X68820289Y-32217821D01*
X68831542Y-32210624D01*
X68890432Y-32172964D01*
X68915140Y-32160795D01*
X68993455Y-32132535D01*
X69020243Y-32126120D01*
X69108995Y-32115085D01*
X69124294Y-32114139D01*
X217220250Y-32114139D01*
X217234138Y-32114919D01*
G37*
%TD.AperFunction*%
D12*
X85175029Y-84688088D03*
X73175029Y-36688088D03*
X213175029Y-36688088D03*
X214175029Y-129688088D03*
X76175029Y-129688088D03*
M02*
