M48
; DRILL file {KiCad 8.0.1} date 2024-03-27T08:46:18-0400
; FORMAT={-:-/ absolute / metric / decimal}
; #@! TF.CreationDate,2024-03-27T08:46:18-04:00
; #@! TF.GenerationSoftware,Kicad,Pcbnew,8.0.1
; #@! TF.FileFunction,NonPlated,1,2,NPTH
FMAT,2
METRIC
; #@! TA.AperFunction,NonPlated,NPTH,ComponentDrill
T1C0.800
; #@! TA.AperFunction,NonPlated,NPTH,ComponentDrill
T2C0.900
; #@! TA.AperFunction,NonPlated,NPTH,ComponentDrill
T3C1.900
; #@! TA.AperFunction,NonPlated,NPTH,ComponentDrill
T4C5.050
%
G90
G05
T1
X169.986Y-92.16
X176.986Y-92.16
X197.947Y-92.161
X204.947Y-92.161
T2
X56.086Y-19.16
X61.086Y-19.16
X313.953Y-19.161
X318.953Y-19.161
T3
X39.27Y-45.227
X39.27Y-64.276
X39.27Y-83.326
X39.27Y-102.376
X50.27Y-45.227
X50.27Y-64.276
X50.27Y-83.326
X50.27Y-102.376
X58.32Y-40.369
X58.32Y-59.419
X58.32Y-78.469
X58.32Y-97.519
X69.32Y-40.369
X69.32Y-59.419
X69.32Y-78.469
X69.32Y-97.519
X77.37Y-35.606
X77.37Y-54.656
X77.37Y-73.706
X77.37Y-92.756
X88.37Y-35.606
X88.37Y-54.656
X88.37Y-73.706
X88.37Y-92.756
X96.42Y-33.225
X96.42Y-52.275
X96.42Y-71.325
X96.42Y-90.375
X107.42Y-33.225
X107.42Y-52.275
X107.42Y-71.325
X107.42Y-90.375
X115.47Y-35.606
X115.47Y-54.656
X115.47Y-73.706
X115.47Y-92.756
X126.47Y-35.606
X126.47Y-54.656
X126.47Y-73.706
X126.47Y-92.756
X134.52Y-37.987
X134.52Y-57.037
X134.52Y-76.087
X134.52Y-95.137
X145.52Y-37.987
X145.52Y-57.037
X145.52Y-76.087
X145.52Y-95.137
X148.822Y-115.458
X158.348Y-120.958
X165.32Y-124.983
X174.846Y-130.483
X200.455Y-130.486
X209.982Y-124.986
X216.94Y-120.961
X226.466Y-115.461
X229.77Y-37.987
X229.77Y-57.037
X229.77Y-76.087
X229.77Y-95.137
X240.77Y-37.987
X240.77Y-57.037
X240.77Y-76.087
X240.77Y-95.137
X248.82Y-35.701
X248.82Y-54.751
X248.82Y-73.801
X248.82Y-92.852
X259.82Y-35.701
X259.82Y-54.751
X259.82Y-73.801
X259.82Y-92.852
X267.87Y-33.225
X267.87Y-52.275
X267.87Y-71.325
X267.87Y-90.375
X278.87Y-33.225
X278.87Y-52.275
X278.87Y-71.325
X278.87Y-90.375
X286.92Y-35.701
X286.92Y-54.751
X286.92Y-73.801
X286.92Y-92.852
X297.92Y-35.701
X297.92Y-54.751
X297.92Y-73.801
X297.92Y-92.852
X305.97Y-40.464
X305.97Y-59.514
X305.97Y-78.564
X305.97Y-97.614
X316.97Y-40.464
X316.97Y-59.514
X316.97Y-78.564
X316.97Y-97.614
X325.02Y-45.227
X325.02Y-64.276
X325.02Y-83.326
X325.02Y-102.376
X336.02Y-45.227
X336.02Y-64.276
X336.02Y-83.326
X336.02Y-102.376
T4
X44.77Y-45.227
X44.77Y-64.276
X44.77Y-83.326
X44.77Y-102.376
X63.82Y-40.369
X63.82Y-59.419
X63.82Y-78.469
X63.82Y-97.519
X82.87Y-35.606
X82.87Y-54.656
X82.87Y-73.706
X82.87Y-92.756
X101.92Y-33.225
X101.92Y-52.275
X101.92Y-71.325
X101.92Y-90.375
X120.97Y-35.606
X120.97Y-54.656
X120.97Y-73.706
X120.97Y-92.756
X140.02Y-37.987
X140.02Y-57.037
X140.02Y-76.087
X140.02Y-95.137
X153.585Y-118.208
X170.083Y-127.733
X205.218Y-127.736
X221.703Y-118.211
X235.27Y-37.987
X235.27Y-57.037
X235.27Y-76.087
X235.27Y-95.137
X254.32Y-35.701
X254.32Y-54.751
X254.32Y-73.801
X254.32Y-92.852
X273.37Y-33.225
X273.37Y-52.275
X273.37Y-71.325
X273.37Y-90.375
X292.42Y-35.701
X292.42Y-54.751
X292.42Y-73.801
X292.42Y-92.852
X311.47Y-40.464
X311.47Y-59.514
X311.47Y-78.564
X311.47Y-97.614
X330.52Y-45.227
X330.52Y-64.276
X330.52Y-83.326
X330.52Y-102.376
M30
